<svg width="20" height="20" viewBox="0 0 20 20" fill="none" xmlns="http://www.w3.org/2000/svg">
<g id="next-icon / copy" clip-path="url(#clip0_17_163)">
<path id="Vector (Stroke)" fill-rule="evenodd" clip-rule="evenodd" d="M9.16669 8.33329C8.70645 8.33329 8.33335 8.70639 8.33335 9.16663V16.6666C8.33335 17.1269 8.70645 17.5 9.16669 17.5H16.6667C17.1269 17.5 17.5 17.1269 17.5 16.6666V9.16663C17.5 8.70639 17.1269 8.33329 16.6667 8.33329H9.16669ZM6.66669 9.16663C6.66669 7.78591 7.78598 6.66663 9.16669 6.66663H16.6667C18.0474 6.66663 19.1667 7.78591 19.1667 9.16663V16.6666C19.1667 18.0473 18.0474 19.1666 16.6667 19.1666H9.16669C7.78598 19.1666 6.66669 18.0473 6.66669 16.6666V9.16663Z" fill="#0D1B2A"/>
<path id="Vector (Stroke)_2" fill-rule="evenodd" clip-rule="evenodd" d="M3.33331 2.50004C3.1123 2.50004 2.90034 2.58784 2.74406 2.74412C2.58778 2.9004 2.49998 3.11236 2.49998 3.33337V10.8334C2.49998 11.0544 2.58778 11.2663 2.74406 11.4226C2.90034 11.5789 3.1123 11.6667 3.33331 11.6667H4.16665C4.62688 11.6667 4.99998 12.0398 4.99998 12.5C4.99998 12.9603 4.62688 13.3334 4.16665 13.3334H3.33331C2.67027 13.3334 2.03439 13.07 1.56555 12.6011C1.09671 12.1323 0.833313 11.4964 0.833313 10.8334V3.33337C0.833313 2.67033 1.0967 2.03445 1.56555 1.56561C2.03439 1.09677 2.67027 0.833374 3.33331 0.833374H10.8333C11.4964 0.833374 12.1322 1.09677 12.6011 1.56561C13.0699 2.03445 13.3333 2.67033 13.3333 3.33337V4.16671C13.3333 4.62694 12.9602 5.00004 12.5 5.00004C12.0397 5.00004 11.6666 4.62694 11.6666 4.16671V3.33337C11.6666 3.11236 11.5788 2.9004 11.4226 2.74412C11.2663 2.58784 11.0543 2.50004 10.8333 2.50004H3.33331Z" fill="#0D1B2A"/>
</g>
<defs>
<clipPath id="clip0_17_163">
<rect width="20" height="20" fill="white"/>
</clipPath>
</defs>
</svg>
