<svg width="186" height="37" viewBox="0 0 186 37" fill="none" xmlns="http://www.w3.org/2000/svg">
<path d="M73.5554 19.943H67.7728V22.8291H73.5554V29.2301C73.5554 30.5251 72.5916 31.4871 71.2942 31.4871H59.1359V22.8291H56.2446V31.4871H49.4982C48.2008 31.4871 47.5707 30.5251 47.5707 29.2301V7.47405C47.5707 6.51205 48.2008 5.55005 49.4982 5.55005H71.2942C72.5916 5.55005 73.5554 6.51205 73.5554 7.47405V19.943ZM59.1359 17.094V11.3221H56.2446V17.094H59.1359Z" fill="white"/>
<path d="M79.1454 31.4871C78.1817 31.4871 77.2179 30.5251 77.2179 29.2301V22.8291H80.1092H85.8918V19.943H80.1092V14.208H85.8918V11.3221H77.2179V7.47405C77.2179 6.17905 78.1817 5.55005 79.1454 5.55005H98.0872C99.3475 5.55005 100.311 6.17905 100.311 7.47405V29.2301C100.311 30.5251 99.3475 31.4871 98.0872 31.4871H79.1454Z" fill="white"/>
<path d="M128.243 5.58705C129.206 5.58705 130.17 6.54905 130.17 7.80705V29.5261C130.17 30.4881 129.206 31.4501 128.243 31.4501H106.484C105.223 31.4501 104.26 30.4881 104.26 29.5261V7.80705C104.26 6.54905 105.223 5.58705 106.484 5.58705H128.243ZM115.788 25.7151V11.3221H112.896V25.7151H115.788Z" fill="white"/>
<path d="M159.892 19.943H154.109V31.4871H139.689V19.943H133.907V7.47405C133.907 6.51205 134.871 5.55005 135.834 5.55005H145.472V14.208H148.326V5.55005H157.63C158.928 5.55005 159.892 6.51205 159.892 7.47405V19.943Z" fill="white"/>
<rect width="37.0681" height="37" rx="18.5" fill="url(#paint0_linear_139_313)"/>
<path d="M28.0597 18.8257C28.0597 18.5871 28.0298 18.3186 27.9999 18.0799C27.97 17.8114 27.9103 17.5728 27.8505 17.3043C27.7907 17.0656 27.7309 16.7971 27.6413 16.5585C27.5516 16.3198 27.462 16.0513 27.3723 15.8127C27.2826 15.574 27.1631 15.3354 27.0436 15.0967C26.924 14.8581 26.8045 14.6194 26.655 14.3808C26.5056 14.1421 26.386 13.9333 26.2366 13.6946C26.0872 13.4858 25.9377 13.2471 25.7584 13.0383C25.4297 12.6207 25.071 12.203 24.6825 11.845C24.5032 11.6661 24.294 11.4871 24.0848 11.3081C23.8756 11.1291 23.6663 10.9799 23.4571 10.8308C23.2479 10.6816 23.0387 10.5324 22.7996 10.3833C22.5904 10.264 22.3513 10.1148 22.1421 9.99547C22.1421 9.99547 22.1421 9.99547 22.1122 9.99547C21.903 9.87614 21.6938 9.78664 21.4547 9.69715C21.3949 9.66732 21.3053 9.63748 21.2455 9.60765C21.0961 9.54799 20.9168 9.48833 20.7673 9.42866C20.7374 9.42866 20.7076 9.39883 20.6777 9.39883C20.4685 9.33917 20.2294 9.2795 20.0202 9.21984C19.7811 9.16017 19.542 9.13034 19.3328 9.10051C19.0937 9.07068 18.8845 9.07068 18.6753 9.07068C18.466 9.07068 18.2568 9.10051 18.0476 9.13034C17.8384 9.16017 17.6292 9.19001 17.4499 9.24967C17.2706 9.30933 17.0614 9.369 16.882 9.42866C16.7027 9.48833 16.5234 9.57782 16.374 9.69715C15.567 10.1745 14.9095 10.9203 14.5509 11.845C14.6405 11.8152 14.7601 11.8152 14.8497 11.8152C15.0291 11.7854 15.2084 11.7854 15.4176 11.7854C15.5969 11.7854 15.8061 11.7854 16.0153 11.8152C16.2245 11.845 16.4337 11.8749 16.6429 11.9047C16.8522 11.9644 17.0913 11.9942 17.3005 12.0837C17.3303 12.0837 17.3602 12.1135 17.3901 12.1135C17.5694 12.1732 17.7189 12.2329 17.8683 12.2925C17.9281 12.3224 18.0177 12.3522 18.0775 12.382C18.2867 12.4715 18.4959 12.561 18.735 12.6803C18.735 12.6803 18.735 12.6803 18.7649 12.6803C18.9741 12.7997 19.2132 12.919 19.4224 13.0682C19.6316 13.2173 19.8707 13.3366 20.0799 13.5156C20.2891 13.6648 20.4983 13.8438 20.7076 13.9929C20.9168 14.1719 21.0961 14.3509 21.3053 14.5299C21.4846 14.7089 21.6938 14.9177 21.8731 15.0967C22.0525 15.3055 22.2318 15.5144 22.3812 15.7232C22.5605 15.932 22.71 16.1408 22.8594 16.3795C23.0088 16.5883 23.1583 16.827 23.2778 17.0656C23.4273 17.3043 23.5468 17.5429 23.6663 17.7816C23.7859 18.0203 23.9054 18.2589 23.9951 18.4976C24.0848 18.7362 24.1744 19.0047 24.2641 19.2434C24.3537 19.482 24.4135 19.7505 24.4733 19.9892C24.5331 20.2278 24.5928 20.4963 24.6227 20.7648C24.6526 20.9139 24.6526 21.0333 24.6825 21.1824V21.2123C24.6825 21.3316 24.7124 21.4509 24.7124 21.5404C24.7124 21.7492 24.7124 21.9581 24.7124 22.1669C24.7124 22.1967 24.7124 22.2266 24.7124 22.2862C24.7124 22.495 24.6825 22.674 24.6526 22.8829C24.6526 22.9127 24.6526 22.9425 24.6227 22.9723C24.5928 23.1513 24.5629 23.3602 24.5032 23.5392C24.5032 23.569 24.5032 23.569 24.5032 23.5988C24.4434 23.7778 24.3836 23.9568 24.3239 24.1358C24.3239 24.1358 24.3239 24.1656 24.294 24.1656C25.1906 24.0165 25.9676 23.6585 26.5953 23.0917C26.655 23.032 26.7148 23.0022 26.7746 22.9425C26.8045 22.9127 26.8045 22.9127 26.8343 22.8829C26.8941 22.8232 26.9539 22.7337 27.0137 22.674C27.0734 22.6144 27.1033 22.5547 27.1631 22.495C27.193 22.4652 27.193 22.4354 27.2229 22.4354C27.2826 22.3459 27.3125 22.2862 27.3723 22.1967C27.4022 22.1371 27.462 22.0774 27.4919 22.0177C27.4919 21.9879 27.5217 21.9581 27.5217 21.9581C27.5815 21.8686 27.6114 21.7791 27.6413 21.6896C27.6712 21.6001 27.7309 21.5404 27.7608 21.4509V21.4211C27.7907 21.3316 27.8206 21.2421 27.8505 21.1228C27.8804 21.0333 27.9103 20.9736 27.9402 20.8841C27.9402 20.8543 27.9402 20.8543 27.9402 20.8245C27.97 20.7051 27.9999 20.6156 27.9999 20.4963C28.0298 20.4068 28.0298 20.3471 28.0597 20.2576C28.0597 20.2278 28.0597 20.198 28.0896 20.1681C28.1195 20.019 28.1195 19.84 28.1494 19.6908C28.1494 19.661 28.1494 19.6312 28.1494 19.6013C28.1494 19.5715 28.1494 19.5417 28.1494 19.482C28.0896 19.2732 28.0896 19.0644 28.0597 18.8257Z" fill="white"/>
<path d="M28.0896 26.1345C28.0298 26.1643 27.9999 26.1941 27.9402 26.224C27.8804 26.2538 27.8505 26.2836 27.7907 26.3135C27.7608 26.3135 27.7608 26.3433 27.731 26.3433C27.7011 26.3731 27.6413 26.403 27.6114 26.403C27.5815 26.4328 27.5217 26.4626 27.4919 26.4626C27.462 26.4626 27.4321 26.4924 27.4022 26.4924C27.3424 26.5223 27.3125 26.5521 27.2528 26.5521C27.2229 26.5819 27.193 26.5819 27.1631 26.6118C27.1332 26.6416 27.1033 26.6416 27.0436 26.6714C26.9838 26.7013 26.9539 26.7013 26.8941 26.7311C26.8642 26.7311 26.8344 26.7609 26.8344 26.7609C26.7746 26.7908 26.7447 26.7908 26.6849 26.8206C26.6251 26.8504 26.5953 26.8504 26.5355 26.8803C26.5056 26.8803 26.5056 26.8803 26.4757 26.9101C26.4159 26.9399 26.3263 26.9399 26.2665 26.9698C26.2366 26.9698 26.1768 26.9996 26.147 26.9996H26.1171C25.9975 27.0294 25.878 27.0593 25.7584 27.0891H25.7285C25.609 27.1189 25.5193 27.1189 25.3998 27.1487H25.3699C25.3101 27.1487 25.2802 27.1487 25.2205 27.1786C25.1607 27.1786 25.071 27.2084 25.0113 27.2084C24.9814 27.2084 24.9814 27.2084 24.9515 27.2084C24.8917 27.2084 24.8319 27.2084 24.8021 27.2084C24.7423 27.2084 24.6825 27.2084 24.6526 27.2084C24.6227 27.2084 24.5928 27.2084 24.563 27.2084C24.5032 27.2084 24.4434 27.2084 24.3836 27.2084C24.3538 27.2084 24.294 27.2084 24.2641 27.2084C24.2342 27.2084 24.1744 27.2084 24.1445 27.2084C24.0848 27.2084 24.025 27.2084 23.9652 27.2084C23.9353 27.2084 23.9054 27.2084 23.8756 27.2084C23.8158 27.2084 23.756 27.2084 23.6962 27.1786C23.6365 27.1786 23.5767 27.1786 23.5169 27.1786C23.487 27.1786 23.487 27.1786 23.4571 27.1786C23.3675 27.1786 23.3077 27.1487 23.2181 27.1487C23.1583 27.1487 23.1284 27.1487 23.0686 27.1189C23.0686 27.1189 23.0686 27.1189 23.0387 27.1189C23.0387 27.1189 23.0387 27.1189 23.0088 27.1189C22.8594 27.0891 22.7399 27.0593 22.5904 27.0294C22.441 26.9996 22.2617 26.9698 22.1122 26.9101C22.1122 26.9101 22.1122 26.9101 22.0824 26.9101C22.0226 26.9101 21.9628 26.8803 21.9329 26.8803C21.6341 26.7908 21.3352 26.7013 21.0363 26.5819C20.9467 26.5521 20.857 26.5223 20.7374 26.4626C20.6478 26.4328 20.588 26.403 20.4984 26.3731C20.4087 26.3433 20.3489 26.3135 20.2593 26.2836C20.1995 26.2538 20.1397 26.224 20.1098 26.224C19.9604 26.1643 19.8408 26.1046 19.6914 26.0151C19.6615 26.0151 19.6615 25.9853 19.6316 25.9853C19.4822 25.9256 19.3627 25.8361 19.2132 25.7466C19.1833 25.7466 19.1535 25.7168 19.1236 25.687C18.9741 25.5975 18.8546 25.5378 18.7051 25.4483C18.6753 25.4185 18.6155 25.3887 18.5856 25.3588C18.4661 25.2992 18.3764 25.2097 18.2568 25.15C18.1373 25.0903 18.0476 25.0009 17.9281 24.9412C17.8982 24.9114 17.8384 24.8815 17.8085 24.8517C17.6591 24.7324 17.5097 24.6429 17.3602 24.5235C17.2108 24.4042 17.0614 24.2849 16.9418 24.1656C16.8522 24.1059 16.7924 24.0164 16.7027 23.9567C16.643 23.8971 16.5832 23.8374 16.5234 23.8076C16.374 23.6882 16.2544 23.5689 16.105 23.4198C16.0153 23.3303 15.9257 23.2408 15.836 23.1513C15.7165 23.0319 15.5969 22.9126 15.5073 22.7933C15.4475 22.7336 15.4176 22.674 15.3578 22.6143C15.3279 22.5546 15.2682 22.5248 15.2383 22.4651C15.1486 22.3756 15.059 22.2861 14.9992 22.1668C14.8796 22.0177 14.7601 21.8685 14.6405 21.7193C14.5808 21.6597 14.5509 21.6 14.4911 21.5403C14.4313 21.4509 14.3716 21.3614 14.2819 21.2719C14.1624 21.1227 14.0727 20.9735 13.9531 20.8244C13.8934 20.7647 13.8635 20.6752 13.8336 20.6156C13.7738 20.5261 13.7141 20.4366 13.6543 20.3471C13.5646 20.1979 13.4451 20.0189 13.3554 19.8698C13.2658 19.7206 13.1761 19.5416 13.0864 19.3925C13.0267 19.2731 12.9669 19.1538 12.9071 19.0046C12.8772 18.9748 12.8772 18.9151 12.8473 18.8853C12.8175 18.7958 12.7876 18.7361 12.7278 18.6467C12.6979 18.5572 12.6381 18.4677 12.6082 18.3782C12.5485 18.2588 12.4887 18.1395 12.4588 17.9904C12.399 17.871 12.3691 17.7517 12.3094 17.6324C12.2795 17.5429 12.2197 17.4235 12.1898 17.3341C12.1301 17.1551 12.0703 16.9761 12.0105 16.7971C11.9507 16.6181 11.891 16.4391 11.8611 16.2899C11.8013 16.0214 11.7415 15.753 11.6818 15.4845C11.6519 15.395 11.6519 15.3055 11.622 15.216C11.5921 15.037 11.5622 14.858 11.5323 14.679C11.5323 14.5895 11.5024 14.5 11.5024 14.4105C11.5024 14.3807 11.5024 14.3509 11.5024 14.321C11.5024 14.2614 11.5024 14.2315 11.5024 14.2017C11.5024 14.1719 11.5024 14.142 11.5024 14.142C11.5024 14.1122 11.5024 14.0824 11.5024 14.0525C11.5024 14.0227 11.5024 13.963 11.5024 13.9332C11.5024 13.8437 11.5024 13.7841 11.5024 13.6946C11.5024 13.6946 11.5024 13.6946 11.5024 13.6647C11.5024 13.6349 11.5024 13.6051 11.5024 13.5752C11.5024 13.4857 11.5024 13.3664 11.5024 13.2769C11.5024 13.1874 11.5024 13.0979 11.5024 12.9786C11.5024 12.8593 11.5024 12.7399 11.5024 12.6206C11.5024 12.5908 11.5024 12.5311 11.5024 12.5013C11.5024 12.382 11.5024 12.2626 11.5323 12.1731C11.5323 12.0836 11.5622 12.024 11.5622 11.9345C11.5622 11.8748 11.5921 11.7853 11.5921 11.7257C11.5921 11.6362 11.622 11.5765 11.622 11.487C11.622 11.3975 11.6519 11.3378 11.6519 11.2483C11.6818 11.1588 11.6818 11.0693 11.7116 11.0097C11.7415 10.95 11.7415 10.8904 11.7714 10.8009C11.8013 10.7114 11.8312 10.6517 11.8312 10.5622C11.8611 10.5025 11.8611 10.413 11.891 10.3534C11.9208 10.2937 11.9507 10.2341 11.9507 10.1744C11.9806 10.1147 11.9806 10.0551 12.0105 9.9954C12.0404 9.93574 12.0703 9.87607 12.1002 9.78658C12.1301 9.72691 12.1599 9.66725 12.1898 9.60759C12.2197 9.54792 12.2496 9.45843 12.3094 9.39876C12.3393 9.3391 12.3691 9.27944 12.399 9.2496C12.4289 9.18994 12.4887 9.13028 12.5186 9.04078C12.5485 8.98112 12.5784 8.92145 12.6082 8.86179C12.6381 8.80212 12.6979 8.74246 12.7278 8.6828C12.7577 8.62313 12.7876 8.5933 12.8174 8.53364C12.8473 8.47397 12.9071 8.41431 12.937 8.38448C12.9669 8.32481 12.9968 8.29498 13.0565 8.23532C13.1163 8.17565 13.1462 8.11599 13.206 8.05633C13.2359 8.02649 13.2956 7.96683 13.3255 7.937C13.3853 7.87734 13.4152 7.8475 13.475 7.78784C13.5048 7.75801 13.5646 7.69834 13.5945 7.66851C13.6543 7.60885 13.7141 7.57902 13.7439 7.51935C13.8037 7.48952 13.8336 7.42986 13.8934 7.40002L10.4564 10.1147C10.3667 10.2042 10.2771 10.2639 10.1874 10.3534L10.1575 10.3832C10.0679 10.4727 9.9782 10.5324 9.91843 10.6219C9.91843 10.6219 9.88854 10.6517 9.88854 10.6815C9.79888 10.771 9.73911 10.8605 9.64945 10.95L9.61956 10.9799C9.5299 11.0693 9.47013 11.1588 9.41036 11.2483C9.41036 11.2483 9.41036 11.2782 9.38047 11.2782C9.32069 11.3677 9.23103 11.487 9.17126 11.5765C9.17126 11.5765 9.17126 11.6063 9.14137 11.6063C9.0816 11.6958 9.02183 11.8151 8.96205 11.9345C8.96205 11.9643 8.93217 11.9643 8.93217 11.9941C8.87239 12.1135 8.81262 12.203 8.75285 12.3223C8.75285 12.3521 8.72296 12.3521 8.72296 12.382C8.66319 12.5013 8.6333 12.5908 8.57353 12.7101C8.57353 12.7399 8.57353 12.7399 8.54364 12.7698C8.48386 12.8891 8.45398 13.0084 8.3942 13.1278C8.36432 13.2471 8.30454 13.3962 8.27466 13.5156C8.27466 13.5454 8.27466 13.5454 8.27466 13.5752C8.24477 13.6946 8.21488 13.8139 8.185 13.963C8.185 13.9929 8.185 14.0227 8.15511 14.0227C8.12522 14.142 8.09534 14.2912 8.09534 14.4105C8.09534 14.4404 8.09534 14.4404 8.09534 14.4702C8.06545 14.6193 8.06545 14.7387 8.03556 14.8878V14.9177C8.03556 15.0668 8.00568 15.1862 8.00568 15.3353V15.3651C8.00568 15.5143 8.00568 15.6635 8.00568 15.8126C8.00568 15.8425 8.00568 15.8723 8.00568 15.8723C8.00568 16.0214 8.00568 16.1706 8.00568 16.3198V16.3496C8.00568 16.3794 8.00568 16.3794 8.00568 16.4093C8.00568 16.4689 8.00568 16.5584 8.00568 16.6181C8.00568 16.6479 8.00568 16.6777 8.00568 16.6777C8.00568 16.7076 8.00568 16.7076 8.00568 16.7374C8.00568 16.7672 8.00568 16.7971 8.00568 16.8269C8.00568 16.8567 8.00568 16.8866 8.00568 16.9164C8.00568 16.9462 8.00568 16.9761 8.00568 17.0357C8.00568 17.0656 8.00568 17.0954 8.00568 17.1252V17.1551C8.00568 17.2446 8.03556 17.3042 8.03556 17.3937C8.03556 17.4534 8.03556 17.4832 8.06545 17.5429C8.06545 17.6025 8.09534 17.6324 8.09534 17.692C8.09534 17.7517 8.12522 17.7815 8.12522 17.8412C8.12522 17.871 8.12522 17.9009 8.12522 17.9307C8.12522 17.9307 8.12522 17.9307 8.12522 17.9605C8.12522 17.9904 8.12522 17.9904 8.12522 18.0202C8.12522 18.0798 8.15511 18.1097 8.15511 18.1693C8.15511 18.229 8.185 18.2588 8.185 18.3185C8.185 18.3483 8.21488 18.3782 8.21488 18.4378C8.21488 18.4677 8.21488 18.4975 8.24477 18.5273C8.24477 18.5273 8.24477 18.5273 8.24477 18.5572C8.24477 18.587 8.27466 18.6168 8.27466 18.6765C8.27466 18.7063 8.30454 18.7361 8.30454 18.7958C8.30454 18.8256 8.33443 18.8555 8.33443 18.9151C8.33443 18.945 8.36432 18.9748 8.36432 19.0345C8.36432 19.0643 8.36432 19.0941 8.3942 19.0941V19.124C8.3942 19.1538 8.42409 19.1836 8.42409 19.2135C8.42409 19.2433 8.45398 19.2731 8.45398 19.303C8.45398 19.3328 8.48386 19.3626 8.48386 19.3925C8.48386 19.4223 8.51375 19.4521 8.51375 19.4819C8.51375 19.5118 8.54364 19.5416 8.54364 19.5714V19.6013V19.6311C8.54364 19.6609 8.57353 19.6908 8.57353 19.7206C8.57353 19.7504 8.60341 19.7803 8.60341 19.8101C8.60341 19.8399 8.6333 19.8698 8.6333 19.8996C8.6333 19.9294 8.66319 19.9593 8.66319 19.9891C8.66319 20.0189 8.69307 20.0488 8.69307 20.0786C8.69307 20.1084 8.69307 20.1084 8.72296 20.1382V20.1681C8.72296 20.1979 8.75285 20.2277 8.75285 20.2576C8.75285 20.2874 8.78273 20.3172 8.78273 20.3471C8.78273 20.3769 8.81262 20.4067 8.81262 20.4366C8.81262 20.4664 8.84251 20.4962 8.84251 20.5261C8.84251 20.5559 8.87239 20.5857 8.87239 20.6156C8.87239 20.6454 8.90228 20.6752 8.90228 20.7051C8.90228 20.7051 8.90228 20.7349 8.93217 20.7349V20.7647C8.93217 20.7946 8.96205 20.8244 8.96205 20.8244C8.96205 20.8542 8.99194 20.884 8.99194 20.884C8.99194 20.9139 9.02183 20.9437 9.02183 20.9437C9.02183 20.9735 9.05171 21.0034 9.05171 21.0034L9.0816 21.063C9.0816 21.0929 9.11149 21.1227 9.11149 21.1227C9.11149 21.1525 9.14137 21.1525 9.14137 21.1824C9.14137 21.2122 9.17126 21.2122 9.17126 21.242C9.17126 21.2719 9.20115 21.2719 9.20115 21.3017C9.20115 21.3315 9.23103 21.3315 9.23103 21.3614C9.23103 21.3912 9.26092 21.3912 9.26092 21.421C9.26092 21.4509 9.29081 21.4509 9.29081 21.4807C9.29081 21.5105 9.3207 21.5105 9.3207 21.5403C9.3207 21.5702 9.35058 21.5702 9.35058 21.6C9.35058 21.6 9.35058 21.6298 9.38047 21.6298V21.6597C9.38047 21.6895 9.41036 21.6895 9.41036 21.7193C9.41036 21.7492 9.44024 21.7492 9.44024 21.779C9.44024 21.8088 9.47013 21.8088 9.47013 21.8387C9.47013 21.8685 9.50002 21.8685 9.50002 21.8983C9.50002 21.9282 9.5299 21.9282 9.5299 21.958C9.5299 21.9878 9.55979 21.9878 9.55979 22.0177C9.55979 22.0475 9.58968 22.0475 9.58968 22.0773C9.58968 22.0773 9.58968 22.1072 9.61956 22.1072C9.61956 22.1072 9.61956 22.1072 9.61956 22.137C9.61956 22.1668 9.64945 22.1668 9.64945 22.1967C9.64945 22.2265 9.67934 22.2265 9.67934 22.2563C9.67934 22.2861 9.70922 22.2861 9.70922 22.316C9.70922 22.3458 9.73911 22.3458 9.73911 22.3756C9.73911 22.4055 9.769 22.4055 9.769 22.4353C9.769 22.4651 9.79888 22.4651 9.79888 22.495C9.79888 22.5248 9.82877 22.5248 9.82877 22.5546C9.82877 22.5845 9.85866 22.5845 9.85866 22.6143C9.85866 22.6441 9.88854 22.6441 9.88854 22.674C9.88854 22.7038 9.91843 22.7038 9.91843 22.7336C9.91843 22.7635 9.94832 22.7635 9.94832 22.7933C9.94832 22.8231 9.9782 22.8231 9.9782 22.853C9.9782 22.8828 10.0081 22.8828 10.0081 22.9126C10.0081 22.9424 10.038 22.9424 10.038 22.9723C10.038 23.0021 10.0679 23.0021 10.0679 23.0319C10.0679 23.0618 10.0978 23.0618 10.0978 23.0916L10.1276 23.1214C10.1276 23.1513 10.1575 23.1513 10.1575 23.1811C10.1575 23.2109 10.1874 23.2109 10.1874 23.2408C10.1874 23.2706 10.2173 23.2706 10.2173 23.3004C10.2173 23.3303 10.2472 23.3303 10.2472 23.3601C10.2472 23.3899 10.2771 23.3899 10.2771 23.4198C10.2771 23.4496 10.307 23.4496 10.307 23.4794C10.307 23.5093 10.3368 23.5093 10.3368 23.5391C10.4564 23.5391 10.4564 23.5391 10.4564 23.5391C10.4564 23.5689 10.4863 23.5689 10.4863 23.5988C10.4863 23.6286 10.5162 23.6286 10.5162 23.6584C10.5162 23.6882 10.5461 23.6882 10.5461 23.7181C10.5461 23.7479 10.5759 23.7479 10.5759 23.7777C10.5759 23.8076 10.6058 23.8076 10.6058 23.8374C10.6058 23.8672 10.6357 23.8672 10.6357 23.8971C10.6357 23.9269 10.6656 23.9269 10.6656 23.9567C10.6656 23.9866 10.6955 23.9866 10.6955 24.0164L10.7254 24.0462C10.7254 24.0761 10.7553 24.0761 10.7553 24.1059C10.7553 24.1357 10.7851 24.1357 10.7851 24.1656C10.7851 24.1954 10.815 24.1954 10.815 24.2252C10.815 24.2551 10.8449 24.2551 10.8449 24.2849C10.8449 24.3147 10.8748 24.3147 10.8748 24.3445C10.8748 24.3744 10.9047 24.3744 10.9047 24.4042C10.9047 24.434 10.9346 24.434 10.9346 24.4639L10.9645 24.4937C10.9645 24.4937 10.9645 24.4937 10.9645 24.5235C10.9645 24.5534 10.9944 24.5534 10.9944 24.5832C10.9944 24.613 11.0242 24.613 11.0242 24.6429C11.0242 24.6727 11.0541 24.6727 11.0541 24.7025C11.0541 24.7324 11.084 24.7324 11.084 24.7622C11.084 24.792 11.1139 24.792 11.1139 24.8219C11.1139 24.8517 11.1438 24.8517 11.1438 24.8815C11.1438 24.9114 11.1737 24.9114 11.1737 24.9412C11.1737 24.971 11.2036 24.971 11.2036 25.0009C11.2036 25.0307 11.2334 25.0307 11.2334 25.0605C11.2334 25.0903 11.2633 25.0903 11.2932 25.1202C11.3231 25.15 11.3231 25.15 11.353 25.1798C11.3829 25.2097 11.3829 25.2097 11.4128 25.2395C11.4427 25.2693 11.4427 25.2693 11.4725 25.2992C11.5024 25.329 11.5024 25.329 11.5323 25.3588C11.5622 25.3887 11.5622 25.3887 11.5921 25.4185C11.622 25.4483 11.622 25.4483 11.6519 25.4782C11.6519 25.508 11.6818 25.508 11.6818 25.5378C11.7116 25.5677 11.7116 25.5677 11.7415 25.5975C11.7714 25.6273 11.7714 25.6273 11.8013 25.6572C11.8312 25.687 11.8312 25.687 11.8611 25.7168C11.891 25.7466 11.891 25.7466 11.9208 25.7765C11.9507 25.8063 11.9507 25.8063 11.9806 25.8361C12.0105 25.866 12.0105 25.866 12.0404 25.8958L12.0703 25.9256C12.1002 25.9555 12.1002 25.9555 12.1301 25.9853C12.1599 26.0151 12.1599 26.0151 12.1898 26.045C12.2197 26.0748 12.2197 26.0748 12.2496 26.1046C12.2795 26.1345 12.2795 26.1345 12.3094 26.1643C12.3393 26.1941 12.3393 26.1941 12.3691 26.224C12.399 26.2538 12.399 26.2538 12.4289 26.2836C12.4588 26.3135 12.4588 26.3135 12.4887 26.3433C12.4887 26.3433 12.4887 26.3433 12.5186 26.3731L12.5485 26.403C12.5784 26.4328 12.5784 26.4328 12.6082 26.4626C12.6381 26.4924 12.6381 26.4924 12.668 26.5223C12.6979 26.5521 12.6979 26.5521 12.7278 26.5819C12.7577 26.6118 12.7577 26.6118 12.7876 26.6416C12.8174 26.6714 12.8175 26.6714 12.8473 26.7013C12.8772 26.7311 12.8772 26.7311 12.9071 26.7609L12.937 26.7908L12.9669 26.8206C12.9968 26.8504 12.9968 26.8504 13.0267 26.8803C13.0565 26.9101 13.0565 26.9101 13.0864 26.9399C13.1163 26.9698 13.1163 26.9698 13.1462 26.9996C13.1761 27.0294 13.1761 27.0294 13.206 27.0593C13.2359 27.0891 13.2359 27.0891 13.2658 27.1189C13.2956 27.1487 13.2956 27.1487 13.3255 27.1786C13.3554 27.2084 13.3554 27.2084 13.3853 27.2382C13.4152 27.2681 13.4152 27.2681 13.4451 27.2979C13.475 27.3277 13.475 27.3277 13.5048 27.3576C13.5347 27.3874 13.5347 27.3874 13.5646 27.4172C13.5945 27.4471 13.6244 27.4471 13.6244 27.4769C13.6543 27.5067 13.6842 27.5067 13.7141 27.5366C13.7141 27.5366 13.7141 27.5366 13.7439 27.5664C13.7738 27.5664 13.7738 27.5962 13.8037 27.5962C13.8336 27.6261 13.8635 27.6261 13.8934 27.6559C13.9233 27.6857 13.9531 27.6857 13.983 27.7156C14.0129 27.7454 14.0428 27.7454 14.0727 27.7752C14.1026 27.805 14.1325 27.8051 14.1624 27.8349C14.1922 27.8647 14.1922 27.8647 14.2221 27.8945C14.252 27.9244 14.2819 27.9244 14.3118 27.9542C14.3417 27.984 14.3716 27.984 14.4015 28.0139C14.4313 28.0437 14.4612 28.0735 14.4911 28.0735C14.521 28.1034 14.5509 28.1332 14.5808 28.1332C14.6107 28.1332 14.6107 28.163 14.6405 28.163C14.6405 28.163 14.6704 28.163 14.6704 28.1929C14.7003 28.2227 14.7302 28.2525 14.7601 28.2525C14.79 28.2824 14.8199 28.2824 14.8498 28.3122C14.8796 28.342 14.9095 28.342 14.9394 28.3719C14.9693 28.4017 14.9992 28.4017 15.0291 28.4315C15.059 28.4614 15.0888 28.4912 15.1486 28.4912C15.2084 28.521 15.2383 28.5508 15.2981 28.5807C15.3578 28.6105 15.3877 28.6403 15.4475 28.6702C15.4774 28.6702 15.4774 28.7 15.5073 28.7C15.5073 28.7 15.5073 28.7 15.5371 28.7C15.567 28.7 15.567 28.7298 15.5969 28.7298C15.6567 28.7597 15.6866 28.7895 15.7464 28.8193C15.8061 28.8492 15.8659 28.879 15.9556 28.9088C15.9556 28.9088 15.9854 28.9088 15.9854 28.9387C16.0153 28.9387 16.0153 28.9685 16.0452 28.9685C16.105 28.9983 16.1349 29.0282 16.1947 29.058C16.2843 29.0878 16.3441 29.1475 16.4338 29.1773H16.4636C16.5234 29.2072 16.5832 29.237 16.643 29.237C16.7326 29.2668 16.7924 29.2966 16.8821 29.3563C16.9119 29.3563 16.9119 29.3563 16.9418 29.3861C17.0016 29.416 17.0614 29.4458 17.1211 29.4458C17.2108 29.4756 17.3005 29.5353 17.42 29.5651C17.4798 29.595 17.5396 29.595 17.5993 29.6248C17.6591 29.6546 17.689 29.6546 17.7488 29.6845C17.7787 29.6845 17.8384 29.7143 17.8683 29.7143C17.958 29.7441 18.0178 29.774 18.1074 29.774C18.1373 29.774 18.1971 29.8038 18.227 29.8038C18.2867 29.8336 18.3764 29.8336 18.4362 29.8635C18.4362 29.8635 18.4362 29.8635 18.4661 29.8635C18.5258 29.8933 18.5856 29.8933 18.6454 29.9231C18.7051 29.9529 18.7948 29.9529 18.8546 29.9828C18.8845 29.9828 18.9144 29.9828 18.9442 30.0126C18.9741 30.0126 19.004 30.0126 19.0339 30.0424C19.0937 30.0424 19.1236 30.0723 19.1833 30.0723C19.2431 30.0723 19.273 30.1021 19.3328 30.1021C19.3627 30.1021 19.3627 30.1021 19.3925 30.1021C19.3925 30.1021 19.3925 30.1021 19.4224 30.1021C19.4523 30.1021 19.4523 30.1021 19.4822 30.1021C19.5121 30.1021 19.5719 30.1021 19.6018 30.1319C19.6316 30.1319 19.6914 30.1319 19.7213 30.1618C19.7512 30.1618 19.7811 30.1618 19.811 30.1618C19.8408 30.1618 19.8707 30.1618 19.9006 30.1618C19.9305 30.1618 19.9604 30.1618 19.9903 30.1618C20.0202 30.1618 20.0501 30.1618 20.0799 30.1618C20.1098 30.1618 20.1397 30.1618 20.1696 30.1618C20.1696 30.1618 20.1696 30.1618 20.1995 30.1618C20.2294 30.1618 20.2593 30.1618 20.2593 30.1618C20.2891 30.1618 20.319 30.1618 20.3489 30.1618C20.3788 30.1618 20.4087 30.1618 20.4386 30.1618C20.4685 30.1618 20.4984 30.1618 20.5282 30.1618C20.5581 30.1618 20.5581 30.1618 20.588 30.1618C20.6179 30.1618 20.6478 30.1618 20.6777 30.1618C20.7076 30.1618 20.7374 30.1618 20.7673 30.1618C20.7972 30.1618 20.8271 30.1618 20.857 30.1618C20.8869 30.1618 20.9168 30.1618 20.9467 30.1618C20.9765 30.1618 21.0064 30.1618 21.0363 30.1618C21.0662 30.1618 21.0662 30.1618 21.0961 30.1618C21.126 30.1618 21.1559 30.1618 21.1858 30.1618C21.2156 30.1618 21.2455 30.1618 21.2455 30.1618C21.2754 30.1618 21.2754 30.1618 21.3053 30.1618C21.3352 30.1618 21.3352 30.1618 21.3651 30.1618C21.395 30.1618 21.395 30.1618 21.4248 30.1618C21.4547 30.1618 21.4547 30.1618 21.4846 30.1618C21.5145 30.1618 21.5145 30.1618 21.5444 30.1618C21.5743 30.1618 21.5743 30.1618 21.6042 30.1618C21.6341 30.1618 21.6341 30.1618 21.6639 30.1618C21.6938 30.1618 21.6938 30.1618 21.7237 30.1618C21.7536 30.1618 21.7536 30.1618 21.7835 30.1618C21.8134 30.1618 21.8134 30.1618 21.8433 30.1618C21.8731 30.1618 21.8731 30.1618 21.903 30.1618C21.9329 30.1618 21.9329 30.1618 21.9628 30.1618C21.9927 30.1618 21.9927 30.1618 22.0226 30.1618C22.0525 30.1618 22.0525 30.1618 22.0824 30.1618C22.1122 30.1618 22.1122 30.1618 22.1421 30.1618C22.1421 30.1618 22.1421 30.1618 22.172 30.1618H22.2019C22.2318 30.1618 22.2318 30.1618 22.2617 30.1618C22.2916 30.1618 22.2916 30.1618 22.3214 30.1618C22.3513 30.1618 22.3513 30.1618 22.3812 30.1618C22.4111 30.1618 22.4111 30.1618 22.441 30.1618C22.4709 30.1618 22.4709 30.1618 22.5008 30.1618C22.5307 30.1618 22.5307 30.1618 22.5605 30.1618C22.5904 30.1618 22.5904 30.1618 22.6203 30.1618C22.6502 30.1618 22.6502 30.1618 22.6801 30.1618C22.71 30.1618 22.71 30.1618 22.7399 30.1618C22.7698 30.1618 22.7698 30.1618 22.7996 30.1618C22.8295 30.1618 22.8295 30.1618 22.8594 30.1618C22.8893 30.1618 22.8893 30.1618 22.9192 30.1319C22.9491 30.1319 22.9491 30.1319 22.979 30.1021H23.0088C23.0387 30.1021 23.0387 30.1021 23.0686 30.0723C23.0985 30.0723 23.0985 30.0723 23.1284 30.0424C23.1583 30.0424 23.1583 30.0424 23.1882 30.0126C23.2181 30.0126 23.2181 30.0126 23.2479 29.9828C23.2778 29.9828 23.2778 29.9828 23.3077 29.9529C23.3376 29.9529 23.3376 29.9529 23.3675 29.9231H23.3974C23.4273 29.9231 23.4273 29.9231 23.4571 29.8933C23.487 29.8933 23.487 29.8933 23.5169 29.8635C23.5169 29.8635 23.5468 29.8635 23.5468 29.8336C23.5468 29.8336 23.5767 29.8336 23.5767 29.8038C23.5767 29.8038 23.6066 29.8038 23.6066 29.774C23.6066 29.774 23.6365 29.774 23.6365 29.7441H23.6664C23.6664 29.7441 23.6664 29.7441 23.6962 29.7441C23.6962 29.7441 23.7261 29.7441 23.7261 29.7143C23.7261 29.7143 23.756 29.7143 23.756 29.6845C23.756 29.6845 23.7859 29.6845 23.7859 29.6546C23.7859 29.6546 23.8158 29.6546 23.8158 29.6248C23.8158 29.595 23.8457 29.6248 23.8457 29.595C23.8457 29.595 23.8756 29.595 23.8756 29.5651C23.8756 29.5651 23.9054 29.5651 23.9054 29.5353C23.9054 29.5353 23.9353 29.5353 23.9353 29.5055L23.9652 29.4756L23.9951 29.4458L24.025 29.416L24.0549 29.3861L24.0848 29.3563L24.1147 29.3265C24.1147 29.3265 24.1147 29.3265 24.1445 29.3265C24.1445 29.3265 24.1445 29.3265 24.1744 29.3265L24.2043 29.2966L24.2342 29.2668L24.2641 29.237L24.294 29.2071L24.3239 29.1773L24.3538 29.1475L24.3836 29.1177L24.4135 29.0878L24.4434 29.058L24.4733 29.0282L24.5032 28.9983L24.5331 28.9685L24.563 28.9387L24.5928 28.9088L28.3885 25.9256L28.3586 25.9555C28.2689 26.0151 28.1793 26.0748 28.0896 26.1345Z" fill="white"/>
<path d="M180.546 26.1073C180.546 26.9492 180.401 27.7122 180.111 28.3963C179.821 29.0673 179.426 29.6395 178.925 30.1131C178.424 30.5867 177.831 30.9551 177.146 31.2182C176.46 31.4681 175.716 31.5931 174.912 31.5931C174.108 31.5931 173.363 31.4681 172.678 31.2182C171.993 30.9551 171.393 30.5867 170.879 30.1131C170.378 29.6395 169.983 29.0673 169.693 28.3963C169.416 27.7122 169.278 26.9492 169.278 26.1073V17.2667H171.769V26.0086C171.769 26.4164 171.821 26.8242 171.927 27.2321C172.032 27.6267 172.203 27.9819 172.441 28.2977C172.691 28.6134 173.014 28.8699 173.409 29.0673C173.818 29.2646 174.319 29.3633 174.912 29.3633C175.505 29.3633 175.999 29.2646 176.395 29.0673C176.803 28.8699 177.126 28.6134 177.363 28.2977C177.614 27.9819 177.792 27.6267 177.897 27.2321C178.003 26.8242 178.055 26.4164 178.055 26.0086V17.2667H180.546V26.1073Z" fill="white"/>
<path d="M183.509 17.2667H186V31.2379H183.509V17.2667Z" fill="white"/>
<defs>
<linearGradient id="paint0_linear_139_313" x1="15.5733" y1="-37.5" x2="57.8591" y2="-28.3087" gradientUnits="userSpaceOnUse">
<stop stop-color="#4361EE"/>
<stop offset="1" stop-color="#B5179E"/>
</linearGradient>
</defs>
</svg>
