<svg width="151" height="30" viewBox="0 0 151 30" fill="none" xmlns="http://www.w3.org/2000/svg">
<path d="M59.53 16.17H54.85V18.51H59.53V23.7C59.53 24.75 58.75 25.53 57.7 25.53H47.86V18.51H45.52V25.53H40.06C39.01 25.53 38.5 24.75 38.5 23.7V6.06C38.5 5.28 39.01 4.5 40.06 4.5H57.7C58.75 4.5 59.53 5.28 59.53 6.06V16.17ZM47.86 13.86V9.18H45.52V13.86H47.86Z" fill="#0D1B2A"/>
<path d="M64.0541 25.53C63.2741 25.53 62.4941 24.75 62.4941 23.7V18.51H64.8341H69.5141V16.17H64.8341V11.52H69.5141V9.18H62.4941V6.06C62.4941 5.01 63.2741 4.5 64.0541 4.5H79.3841C80.4041 4.5 81.1841 5.01 81.1841 6.06V23.7C81.1841 24.75 80.4041 25.53 79.3841 25.53H64.0541Z" fill="#0D1B2A"/>
<path d="M103.79 4.53C104.57 4.53 105.35 5.31 105.35 6.33V23.94C105.35 24.72 104.57 25.5 103.79 25.5H86.1796C85.1596 25.5 84.3796 24.72 84.3796 23.94V6.33C84.3796 5.31 85.1596 4.53 86.1796 4.53H103.79ZM93.7096 20.85V9.18H91.3696V20.85H93.7096Z" fill="#0D1B2A"/>
<path d="M129.404 16.17H124.724V25.53H113.054V16.17H108.374V6.06C108.374 5.28 109.154 4.5 109.934 4.5H117.734V11.52H120.044V4.5H127.574C128.624 4.5 129.404 5.28 129.404 6.06V16.17Z" fill="#0D1B2A"/>
<rect width="30" height="30" rx="15" fill="#0D1B2A"/>
<path d="M22.7093 15.2641C22.7093 15.0706 22.6851 14.8529 22.661 14.6594C22.6368 14.4417 22.5884 14.2482 22.54 14.0305C22.4916 13.837 22.4433 13.6193 22.3707 13.4258C22.2981 13.2323 22.2256 13.0146 22.153 12.8211C22.0804 12.6276 21.9837 12.4341 21.8869 12.2406C21.7902 12.0471 21.6934 11.8536 21.5725 11.6601C21.4516 11.4666 21.3548 11.2973 21.2339 11.1038C21.1129 10.9344 20.992 10.7409 20.8468 10.5716C20.5808 10.233 20.2905 9.89436 19.9761 9.6041C19.831 9.45897 19.6616 9.31385 19.4923 9.16872C19.323 9.02359 19.1537 8.90265 18.9844 8.78171C18.8151 8.66077 18.6457 8.53983 18.4522 8.41889C18.2829 8.32214 18.0894 8.2012 17.9201 8.10444C17.9201 8.10444 17.9201 8.10444 17.8959 8.10444C17.7266 8.00769 17.5573 7.93513 17.3638 7.86256C17.3154 7.83838 17.2428 7.81419 17.1945 7.79C17.0735 7.74162 16.9284 7.69325 16.8074 7.64487C16.7833 7.64487 16.7591 7.62068 16.7349 7.62068C16.5656 7.57231 16.3721 7.52393 16.2027 7.47555C16.0092 7.42718 15.8157 7.40299 15.6464 7.3788C15.4529 7.35461 15.2836 7.35461 15.1143 7.35461C14.945 7.35461 14.7757 7.3788 14.6063 7.40299C14.437 7.42718 14.2677 7.45137 14.1226 7.49974C13.9774 7.54812 13.8081 7.59649 13.663 7.64487C13.5179 7.69325 13.3727 7.76581 13.2518 7.86256C12.5987 8.24957 12.0666 8.85427 11.7763 9.6041C11.8489 9.57991 11.9457 9.57991 12.0182 9.57991C12.1633 9.55573 12.3085 9.55573 12.4778 9.55573C12.6229 9.55573 12.7922 9.55573 12.9615 9.57991C13.1309 9.6041 13.3002 9.62829 13.4695 9.65248C13.6388 9.70085 13.8323 9.72504 14.0016 9.79761C14.0258 9.79761 14.05 9.82179 14.0742 9.82179C14.2193 9.87017 14.3403 9.91855 14.4612 9.96692C14.5096 9.99111 14.5821 10.0153 14.6305 10.0395C14.7998 10.1121 14.9692 10.1846 15.1627 10.2814C15.1627 10.2814 15.1627 10.2814 15.1868 10.2814C15.3562 10.3781 15.5497 10.4749 15.719 10.5958C15.8883 10.7168 16.0818 10.8135 16.2511 10.9586C16.4204 11.0796 16.5898 11.2247 16.7591 11.3456C16.9284 11.4908 17.0735 11.6359 17.2428 11.781C17.388 11.9262 17.5573 12.0955 17.7024 12.2406C17.8475 12.4099 17.9927 12.5792 18.1136 12.7485C18.2587 12.9179 18.3797 13.0872 18.5006 13.2807C18.6216 13.45 18.7425 13.6435 18.8392 13.837C18.9602 14.0305 19.0569 14.224 19.1537 14.4175C19.2504 14.611 19.3472 14.8045 19.4198 14.998C19.4923 15.1915 19.5649 15.4092 19.6374 15.6027C19.71 15.7962 19.7584 16.0139 19.8068 16.2074C19.8551 16.4009 19.9035 16.6186 19.9277 16.8363C19.9519 16.9573 19.9519 17.054 19.9761 17.175V17.1991C19.9761 17.2959 20.0003 17.3926 20.0003 17.4652C20.0003 17.6345 20.0003 17.8038 20.0003 17.9732C20.0003 17.9973 20.0003 18.0215 20.0003 18.0699C20.0003 18.2392 19.9761 18.3844 19.9519 18.5537C19.9519 18.5779 19.9519 18.602 19.9277 18.6262C19.9035 18.7714 19.8793 18.9407 19.831 19.0858C19.831 19.11 19.831 19.11 19.831 19.1342C19.7826 19.2793 19.7342 19.4244 19.6858 19.5696C19.6858 19.5696 19.6858 19.5938 19.6616 19.5938C20.3873 19.4728 21.0162 19.1826 21.5241 18.723C21.5725 18.6746 21.6209 18.6504 21.6692 18.6021C21.6934 18.5779 21.6934 18.5779 21.7176 18.5537C21.766 18.5053 21.8144 18.4327 21.8627 18.3844C21.9111 18.336 21.9353 18.2876 21.9837 18.2392C22.0079 18.215 22.0079 18.1909 22.0321 18.1909C22.0804 18.1183 22.1046 18.0699 22.153 17.9973C22.1772 17.949 22.2256 17.9006 22.2498 17.8522C22.2498 17.828 22.2739 17.8038 22.2739 17.8038C22.3223 17.7313 22.3465 17.6587 22.3707 17.5862C22.3949 17.5136 22.4433 17.4652 22.4674 17.3926V17.3685C22.4916 17.2959 22.5158 17.2233 22.54 17.1266C22.5642 17.054 22.5884 17.0056 22.6126 16.9331C22.6126 16.9089 22.6126 16.9089 22.6126 16.8847C22.6368 16.7879 22.661 16.7154 22.661 16.6186C22.6851 16.5461 22.6851 16.4977 22.7093 16.4251C22.7093 16.4009 22.7093 16.3768 22.7335 16.3526C22.7577 16.2316 22.7577 16.0865 22.7819 15.9656C22.7819 15.9414 22.7819 15.9172 22.7819 15.893C22.7819 15.8688 22.7819 15.8446 22.7819 15.7962C22.7335 15.6269 22.7335 15.4576 22.7093 15.2641Z" fill="white"/>
<path d="M22.7335 21.1901C22.6851 21.2143 22.661 21.2385 22.6126 21.2626C22.5642 21.2868 22.54 21.311 22.4916 21.3352C22.4674 21.3352 22.4674 21.3594 22.4433 21.3594C22.4191 21.3836 22.3707 21.4078 22.3465 21.4078C22.3223 21.432 22.2739 21.4562 22.2498 21.4562C22.2256 21.4562 22.2014 21.4803 22.1772 21.4803C22.1288 21.5045 22.1046 21.5287 22.0562 21.5287C22.0321 21.5529 22.0079 21.5529 21.9837 21.5771C21.9595 21.6013 21.9353 21.6013 21.8869 21.6255C21.8386 21.6497 21.8144 21.6497 21.766 21.6738C21.7418 21.6738 21.7176 21.698 21.7176 21.698C21.6692 21.7222 21.6451 21.7222 21.5967 21.7464C21.5483 21.7706 21.5241 21.7706 21.4757 21.7948C21.4516 21.7948 21.4515 21.7948 21.4274 21.819C21.379 21.8432 21.3064 21.8432 21.258 21.8674C21.2339 21.8674 21.1855 21.8915 21.1613 21.8915H21.1371C21.0404 21.9157 20.9436 21.9399 20.8468 21.9641H20.8227C20.7259 21.9883 20.6533 21.9883 20.5566 22.0125H20.5324C20.484 22.0125 20.4598 22.0125 20.4115 22.0367C20.3631 22.0367 20.2905 22.0609 20.2421 22.0609C20.218 22.0609 20.218 22.0609 20.1938 22.0609C20.1454 22.0609 20.097 22.0609 20.0728 22.0609C20.0245 22.0609 19.9761 22.0609 19.9519 22.0609C19.9277 22.0609 19.9035 22.0609 19.8793 22.0609C19.831 22.0609 19.7826 22.0609 19.7342 22.0609C19.71 22.0609 19.6616 22.0609 19.6374 22.0609C19.6133 22.0609 19.5649 22.0609 19.5407 22.0609C19.4923 22.0609 19.4439 22.0609 19.3956 22.0609C19.3714 22.0609 19.3472 22.0609 19.323 22.0609C19.2746 22.0609 19.2263 22.0609 19.1779 22.0367C19.1295 22.0367 19.0811 22.0367 19.0327 22.0367C19.0086 22.0367 19.0086 22.0367 18.9844 22.0367C18.9118 22.0367 18.8634 22.0125 18.7909 22.0125C18.7425 22.0125 18.7183 22.0125 18.6699 21.9883C18.6699 21.9883 18.6699 21.9883 18.6457 21.9883C18.6457 21.9883 18.6457 21.9883 18.6215 21.9883C18.5006 21.9641 18.4039 21.9399 18.2829 21.9157C18.162 21.8915 18.0168 21.8674 17.8959 21.819C17.8959 21.819 17.8959 21.819 17.8717 21.819C17.8233 21.819 17.775 21.7948 17.7508 21.7948C17.5089 21.7222 17.267 21.6497 17.0251 21.5529C16.9526 21.5287 16.88 21.5045 16.7833 21.4562C16.7107 21.432 16.6623 21.4078 16.5898 21.3836C16.5172 21.3594 16.4688 21.3352 16.3963 21.311C16.3479 21.2868 16.2995 21.2626 16.2753 21.2626C16.1544 21.2143 16.0576 21.1659 15.9367 21.0933C15.9125 21.0933 15.9125 21.0691 15.8883 21.0691C15.7674 21.0208 15.6706 20.9482 15.5497 20.8756C15.5255 20.8756 15.5013 20.8515 15.4771 20.8273C15.3562 20.7547 15.2594 20.7063 15.1385 20.6338C15.1143 20.6096 15.0659 20.5854 15.0417 20.5612C14.945 20.5128 14.8724 20.4403 14.7757 20.3919C14.6789 20.3435 14.6063 20.2709 14.5096 20.2226C14.4854 20.1984 14.437 20.1742 14.4128 20.15C14.2919 20.0532 14.171 19.9807 14.05 19.8839C13.9291 19.7872 13.8081 19.6904 13.7114 19.5937C13.6388 19.5453 13.5904 19.4727 13.5179 19.4244C13.4695 19.376 13.4211 19.3276 13.3727 19.3034C13.2518 19.2067 13.1551 19.1099 13.0341 18.989C12.9616 18.9164 12.889 18.8438 12.8164 18.7713C12.7197 18.6745 12.6229 18.5778 12.5504 18.481C12.502 18.4326 12.4778 18.3843 12.4294 18.3359C12.4052 18.2875 12.3568 18.2633 12.3327 18.215C12.2601 18.1424 12.1875 18.0698 12.1392 17.9731C12.0424 17.8521 11.9457 17.7312 11.8489 17.6103C11.8005 17.5619 11.7763 17.5135 11.728 17.4651C11.6796 17.3926 11.6312 17.32 11.5586 17.2474C11.4619 17.1265 11.3893 17.0056 11.2926 16.8846C11.2442 16.8362 11.22 16.7637 11.1958 16.7153C11.1474 16.6427 11.0991 16.5702 11.0507 16.4976C10.9781 16.3767 10.8814 16.2315 10.8088 16.1106C10.7363 15.9897 10.6637 15.8445 10.5911 15.7236C10.5427 15.6268 10.4944 15.5301 10.446 15.4091C10.4218 15.385 10.4218 15.3366 10.3976 15.3124C10.3734 15.2398 10.3492 15.1915 10.3009 15.1189C10.2767 15.0463 10.2283 14.9738 10.2041 14.9012C10.1557 14.8044 10.1074 14.7077 10.0832 14.5868C10.0348 14.49 10.0106 14.3932 9.96223 14.2965C9.93805 14.2239 9.88967 14.1272 9.86548 14.0546C9.8171 13.9095 9.76873 13.7644 9.72035 13.6192C9.67198 13.4741 9.6236 13.329 9.59941 13.208C9.55104 12.9903 9.50266 12.7726 9.45428 12.555C9.4301 12.4824 9.4301 12.4098 9.40591 12.3373C9.38172 12.1921 9.35753 12.047 9.33334 11.9019C9.33334 11.8293 9.30916 11.7568 9.30916 11.6842C9.30916 11.66 9.30916 11.6358 9.30916 11.6116C9.30916 11.5632 9.30916 11.5391 9.30916 11.5149C9.30916 11.4907 9.30916 11.4665 9.30916 11.4665C9.30916 11.4423 9.30916 11.4181 9.30916 11.3939C9.30916 11.3697 9.30916 11.3214 9.30916 11.2972C9.30916 11.2246 9.30916 11.1762 9.30916 11.1037C9.30916 11.1037 9.30916 11.1037 9.30916 11.0795C9.30916 11.0553 9.30916 11.0311 9.30916 11.0069C9.30916 10.9344 9.30916 10.8376 9.30916 10.765C9.30916 10.6925 9.30916 10.6199 9.30916 10.5232C9.30916 10.4264 9.30916 10.3297 9.30916 10.2329C9.30916 10.2087 9.30916 10.1603 9.30916 10.1362C9.30916 10.0394 9.30916 9.94265 9.33334 9.87009C9.33334 9.79752 9.35753 9.74915 9.35753 9.67658C9.35753 9.62821 9.38172 9.55564 9.38172 9.50726C9.38172 9.4347 9.40591 9.38632 9.40591 9.31376C9.40591 9.2412 9.4301 9.19282 9.4301 9.12026C9.45428 9.04769 9.45428 8.97513 9.47847 8.92675C9.50266 8.87838 9.50266 8.83 9.52685 8.75744C9.55104 8.68487 9.57522 8.6365 9.57522 8.56393C9.59941 8.51556 9.59941 8.44299 9.6236 8.39462C9.64779 8.34624 9.67198 8.29786 9.67198 8.24949C9.69617 8.20111 9.69617 8.15274 9.72035 8.10436C9.74454 8.05598 9.76873 8.00761 9.79292 7.93504C9.81711 7.88667 9.84129 7.83829 9.86548 7.78991C9.88967 7.74154 9.91386 7.66897 9.96223 7.6206C9.98642 7.57222 10.0106 7.52385 10.0348 7.49966C10.059 7.45128 10.1074 7.40291 10.1315 7.33034C10.1557 7.28197 10.1799 7.23359 10.2041 7.18521C10.2283 7.13684 10.2767 7.08846 10.3009 7.04009C10.3251 6.99171 10.3492 6.96752 10.3734 6.91915C10.3976 6.87077 10.446 6.82239 10.4702 6.79821C10.4944 6.74983 10.5186 6.72564 10.5669 6.67727C10.6153 6.62889 10.6395 6.58051 10.6879 6.53214C10.7121 6.50795 10.7604 6.45957 10.7846 6.43538C10.833 6.38701 10.8572 6.36282 10.9056 6.31444C10.9298 6.29026 10.9781 6.24188 11.0023 6.21769C11.0507 6.16932 11.0991 6.14513 11.1233 6.09675C11.1716 6.07256 11.1958 6.02419 11.2442 6L8.46258 8.20111C8.39001 8.27368 8.31745 8.32205 8.24488 8.39462L8.22069 8.4188C8.14813 8.49137 8.07557 8.53974 8.02719 8.61231C8.02719 8.61231 8.003 8.6365 8.003 8.66068C7.93044 8.73325 7.88206 8.80581 7.8095 8.87838L7.78531 8.90256C7.71275 8.97513 7.66437 9.04769 7.61599 9.12026C7.61599 9.12026 7.61599 9.14444 7.59181 9.14444C7.54343 9.21701 7.47087 9.31376 7.42249 9.38632C7.42249 9.38632 7.42249 9.41051 7.3983 9.41051C7.34993 9.48308 7.30155 9.57983 7.25317 9.67658C7.25317 9.70077 7.22899 9.70077 7.22899 9.72496C7.18061 9.82171 7.13223 9.89427 7.08386 9.99103C7.08386 10.0152 7.05967 10.0152 7.05967 10.0394C7.01129 10.1362 6.98711 10.2087 6.93873 10.3055C6.93873 10.3297 6.93873 10.3297 6.91454 10.3538C6.86617 10.4506 6.84198 10.5474 6.7936 10.6441C6.76941 10.7409 6.72104 10.8618 6.69685 10.9585C6.69685 10.9827 6.69685 10.9827 6.69685 11.0069C6.67266 11.1037 6.64847 11.2004 6.62428 11.3214C6.62428 11.3456 6.62428 11.3697 6.6001 11.3697C6.57591 11.4665 6.55172 11.5874 6.55172 11.6842C6.55172 11.7084 6.55172 11.7084 6.55172 11.7326C6.52753 11.8535 6.52753 11.9503 6.50334 12.0712V12.0954C6.50334 12.2163 6.47916 12.3131 6.47916 12.434V12.4582C6.47916 12.5791 6.47916 12.7001 6.47916 12.821C6.47916 12.8452 6.47916 12.8694 6.47916 12.8694C6.47916 12.9903 6.47916 13.1113 6.47916 13.2322V13.2564C6.47916 13.2806 6.47916 13.2806 6.47916 13.3048C6.47916 13.3532 6.47916 13.4257 6.47916 13.4741C6.47916 13.4983 6.47916 13.5225 6.47916 13.5225C6.47916 13.5467 6.47916 13.5467 6.47916 13.5709C6.47916 13.595 6.47916 13.6192 6.47916 13.6434C6.47916 13.6676 6.47916 13.6918 6.47916 13.716C6.47916 13.7402 6.47916 13.7644 6.47916 13.8127C6.47916 13.8369 6.47916 13.8611 6.47916 13.8853V13.9095C6.47916 13.9821 6.50334 14.0304 6.50334 14.103C6.50334 14.1514 6.50334 14.1756 6.52753 14.2239C6.52753 14.2723 6.55172 14.2965 6.55172 14.3449C6.55172 14.3932 6.57591 14.4174 6.57591 14.4658C6.57591 14.49 6.57591 14.5142 6.57591 14.5384C6.57591 14.5384 6.57591 14.5384 6.57591 14.5626C6.57591 14.5868 6.57591 14.5868 6.57591 14.6109C6.57591 14.6593 6.6001 14.6835 6.6001 14.7319C6.6001 14.7803 6.62428 14.8044 6.62428 14.8528C6.62428 14.877 6.64847 14.9012 6.64847 14.9496C6.64847 14.9738 6.64847 14.9979 6.67266 15.0221C6.67266 15.0221 6.67266 15.0221 6.67266 15.0463C6.67266 15.0705 6.69685 15.0947 6.69685 15.1431C6.69685 15.1673 6.72104 15.1915 6.72104 15.2398C6.72104 15.264 6.74522 15.2882 6.74522 15.3366C6.74522 15.3608 6.76941 15.385 6.76941 15.4333C6.76941 15.4575 6.76941 15.4817 6.7936 15.4817V15.5059C6.7936 15.5301 6.81779 15.5543 6.81779 15.5785C6.81779 15.6026 6.84198 15.6268 6.84198 15.651C6.84198 15.6752 6.86616 15.6994 6.86616 15.7236C6.86616 15.7478 6.89035 15.772 6.89035 15.7962C6.89035 15.8203 6.91454 15.8445 6.91454 15.8687V15.8929V15.9171C6.91454 15.9413 6.93873 15.9655 6.93873 15.9897C6.93873 16.0138 6.96292 16.038 6.96292 16.0622C6.96292 16.0864 6.98711 16.1106 6.98711 16.1348C6.98711 16.159 7.01129 16.1832 7.01129 16.2073C7.01129 16.2315 7.03548 16.2557 7.03548 16.2799C7.03548 16.3041 7.03548 16.3041 7.05967 16.3283V16.3525C7.05967 16.3767 7.08386 16.4009 7.08386 16.425C7.08386 16.4492 7.10805 16.4734 7.10805 16.4976C7.10805 16.5218 7.13223 16.546 7.13223 16.5702C7.13223 16.5944 7.15642 16.6185 7.15642 16.6427C7.15642 16.6669 7.18061 16.6911 7.18061 16.7153C7.18061 16.7395 7.2048 16.7637 7.2048 16.7879C7.2048 16.7879 7.2048 16.8121 7.22899 16.8121V16.8362C7.22899 16.8604 7.25317 16.8846 7.25317 16.8846C7.25317 16.9088 7.27736 16.933 7.27736 16.933C7.27736 16.9572 7.30155 16.9814 7.30155 16.9814C7.30155 17.0056 7.32574 17.0297 7.32574 17.0297L7.34993 17.0781C7.34993 17.1023 7.37411 17.1265 7.37411 17.1265C7.37411 17.1507 7.3983 17.1507 7.3983 17.1749C7.3983 17.1991 7.42249 17.1991 7.42249 17.2232C7.42249 17.2474 7.44668 17.2474 7.44668 17.2716C7.44668 17.2958 7.47087 17.2958 7.47087 17.32C7.47087 17.3442 7.49505 17.3442 7.49505 17.3684C7.49505 17.3926 7.51924 17.3926 7.51924 17.4168C7.51924 17.4409 7.54343 17.4409 7.54343 17.4651C7.54343 17.4893 7.56762 17.4893 7.56762 17.5135C7.56762 17.5135 7.56762 17.5377 7.59181 17.5377V17.5619C7.59181 17.5861 7.61599 17.5861 7.61599 17.6103C7.61599 17.6344 7.64018 17.6344 7.64018 17.6586C7.64018 17.6828 7.66437 17.6828 7.66437 17.707C7.66437 17.7312 7.68856 17.7312 7.68856 17.7554C7.68856 17.7796 7.71275 17.7796 7.71275 17.8038C7.71275 17.8279 7.73693 17.8279 7.73693 17.8521C7.73693 17.8763 7.76112 17.8763 7.76112 17.9005C7.76112 17.9005 7.76112 17.9247 7.78531 17.9247C7.78531 17.9247 7.78531 17.9247 7.78531 17.9489C7.78531 17.9731 7.8095 17.9731 7.8095 17.9973C7.8095 18.0215 7.83369 18.0215 7.83369 18.0456C7.83369 18.0698 7.85787 18.0698 7.85787 18.094C7.85787 18.1182 7.88206 18.1182 7.88206 18.1424C7.88206 18.1666 7.90625 18.1666 7.90625 18.1908C7.90625 18.215 7.93044 18.215 7.93044 18.2391C7.93044 18.2633 7.95463 18.2633 7.95463 18.2875C7.95463 18.3117 7.97881 18.3117 7.97881 18.3359C7.97881 18.3601 8.003 18.3601 8.003 18.3843C8.003 18.4085 8.02719 18.4085 8.02719 18.4326C8.02719 18.4568 8.05138 18.4568 8.05138 18.481C8.05138 18.5052 8.07557 18.5052 8.07557 18.5294C8.07557 18.5536 8.09975 18.5536 8.09975 18.5778C8.09975 18.602 8.12394 18.602 8.12394 18.6262C8.12394 18.6503 8.14813 18.6503 8.14813 18.6745C8.14813 18.6987 8.17232 18.6987 8.17232 18.7229L8.19651 18.7471C8.19651 18.7713 8.22069 18.7713 8.22069 18.7955C8.22069 18.8197 8.24488 18.8197 8.24488 18.8438C8.24488 18.868 8.26907 18.868 8.26907 18.8922C8.26907 18.9164 8.29326 18.9164 8.29326 18.9406C8.29326 18.9648 8.31745 18.9648 8.31745 18.989C8.31745 19.0132 8.34164 19.0132 8.34164 19.0374C8.34164 19.0615 8.36582 19.0615 8.36582 19.0857C8.46258 19.0857 8.46258 19.0857 8.46258 19.0857C8.46258 19.1099 8.48676 19.1099 8.48676 19.1341C8.48676 19.1583 8.51095 19.1583 8.51095 19.1825C8.51095 19.2067 8.53514 19.2067 8.53514 19.2309C8.53514 19.255 8.55933 19.255 8.55933 19.2792C8.55933 19.3034 8.58352 19.3034 8.58352 19.3276C8.58352 19.3518 8.6077 19.3518 8.6077 19.376C8.6077 19.4002 8.63189 19.4002 8.63189 19.4244C8.63189 19.4485 8.65608 19.4485 8.65608 19.4727L8.68027 19.4969C8.68027 19.5211 8.70446 19.5211 8.70446 19.5453C8.70446 19.5695 8.72864 19.5695 8.72864 19.5937C8.72864 19.6179 8.75283 19.6179 8.75283 19.6421C8.75283 19.6662 8.77702 19.6662 8.77702 19.6904C8.77702 19.7146 8.80121 19.7146 8.80121 19.7388C8.80121 19.763 8.8254 19.763 8.8254 19.7872C8.8254 19.8114 8.84958 19.8114 8.84958 19.8356L8.87377 19.8597C8.87377 19.8597 8.87377 19.8597 8.87377 19.8839C8.87377 19.9081 8.89796 19.9081 8.89796 19.9323C8.89796 19.9565 8.92215 19.9565 8.92215 19.9807C8.92215 20.0049 8.94634 20.0049 8.94634 20.0291C8.94634 20.0532 8.97052 20.0532 8.97052 20.0774C8.97052 20.1016 8.99471 20.1016 8.99471 20.1258C8.99471 20.15 9.0189 20.15 9.0189 20.1742C9.0189 20.1984 9.04309 20.1984 9.04309 20.2226C9.04309 20.2468 9.06728 20.2468 9.06728 20.2709C9.06728 20.2951 9.09146 20.2951 9.09146 20.3193C9.09146 20.3435 9.11565 20.3435 9.13984 20.3677C9.16403 20.3919 9.16403 20.3919 9.18822 20.4161C9.2124 20.4403 9.2124 20.4403 9.23659 20.4644C9.26078 20.4886 9.26078 20.4886 9.28497 20.5128C9.30916 20.537 9.30916 20.537 9.33334 20.5612C9.35753 20.5854 9.35753 20.5854 9.38172 20.6096C9.40591 20.6338 9.40591 20.6338 9.4301 20.6579C9.4301 20.6821 9.45428 20.6821 9.45428 20.7063C9.47847 20.7305 9.47847 20.7305 9.50266 20.7547C9.52685 20.7789 9.52685 20.7789 9.55104 20.8031C9.57522 20.8273 9.57523 20.8273 9.59941 20.8515C9.6236 20.8756 9.6236 20.8756 9.64779 20.8998C9.67198 20.924 9.67198 20.924 9.69617 20.9482C9.72035 20.9724 9.72035 20.9724 9.74454 20.9966L9.76873 21.0208C9.79292 21.045 9.79292 21.045 9.81711 21.0691C9.84129 21.0933 9.84129 21.0933 9.86548 21.1175C9.88967 21.1417 9.88967 21.1417 9.91386 21.1659C9.93805 21.1901 9.93805 21.1901 9.96223 21.2143C9.98642 21.2385 9.98642 21.2385 10.0106 21.2626C10.0348 21.2868 10.0348 21.2868 10.059 21.311C10.0832 21.3352 10.0832 21.3352 10.1074 21.3594C10.1074 21.3594 10.1074 21.3594 10.1315 21.3836L10.1557 21.4078C10.1799 21.432 10.1799 21.432 10.2041 21.4562C10.2283 21.4803 10.2283 21.4803 10.2525 21.5045C10.2767 21.5287 10.2767 21.5287 10.3009 21.5529C10.3251 21.5771 10.3251 21.5771 10.3492 21.6013C10.3734 21.6255 10.3734 21.6255 10.3976 21.6497C10.4218 21.6738 10.4218 21.6738 10.446 21.698L10.4702 21.7222L10.4944 21.7464C10.5186 21.7706 10.5186 21.7706 10.5427 21.7948C10.5669 21.819 10.5669 21.819 10.5911 21.8432C10.6153 21.8674 10.6153 21.8673 10.6395 21.8915C10.6637 21.9157 10.6637 21.9157 10.6879 21.9399C10.7121 21.9641 10.7121 21.9641 10.7363 21.9883C10.7604 22.0125 10.7604 22.0125 10.7846 22.0367C10.8088 22.0609 10.8088 22.0609 10.833 22.085C10.8572 22.1092 10.8572 22.1092 10.8814 22.1334C10.9056 22.1576 10.9056 22.1576 10.9298 22.1818C10.9539 22.206 10.9539 22.206 10.9781 22.2302C11.0023 22.2544 11.0265 22.2544 11.0265 22.2785C11.0507 22.3027 11.0749 22.3027 11.0991 22.3269C11.0991 22.3269 11.0991 22.3269 11.1233 22.3511C11.1474 22.3511 11.1474 22.3753 11.1716 22.3753C11.1958 22.3995 11.22 22.3995 11.2442 22.4237C11.2684 22.4479 11.2926 22.4479 11.3168 22.4721C11.341 22.4962 11.3651 22.4962 11.3893 22.5204C11.4135 22.5446 11.4377 22.5446 11.4619 22.5688C11.4861 22.593 11.4861 22.593 11.5103 22.6172C11.5345 22.6414 11.5586 22.6414 11.5828 22.6656C11.607 22.6897 11.6312 22.6897 11.6554 22.7139C11.6796 22.7381 11.7038 22.7623 11.728 22.7623C11.7521 22.7865 11.7763 22.8107 11.8005 22.8107C11.8247 22.8107 11.8247 22.8349 11.8489 22.8349C11.8489 22.8349 11.8731 22.8349 11.8731 22.8591C11.8973 22.8832 11.9215 22.9074 11.9457 22.9074C11.9698 22.9316 11.994 22.9316 12.0182 22.9558C12.0424 22.98 12.0666 22.98 12.0908 23.0042C12.115 23.0284 12.1392 23.0284 12.1633 23.0526C12.1875 23.0768 12.2117 23.1009 12.2601 23.1009C12.3085 23.1251 12.3327 23.1493 12.381 23.1735C12.4294 23.1977 12.4536 23.2219 12.502 23.2461C12.5262 23.2461 12.5262 23.2703 12.5504 23.2703C12.5504 23.2703 12.5504 23.2703 12.5745 23.2703C12.5987 23.2703 12.5987 23.2944 12.6229 23.2944C12.6713 23.3186 12.6955 23.3428 12.7439 23.367C12.7922 23.3912 12.8406 23.4154 12.9132 23.4396C12.9132 23.4396 12.9374 23.4396 12.9374 23.4638C12.9615 23.4638 12.9616 23.4879 12.9857 23.4879C13.0341 23.5121 13.0583 23.5363 13.1067 23.5605C13.1792 23.5847 13.2276 23.6331 13.3002 23.6573H13.3244C13.3727 23.6815 13.4211 23.7056 13.4695 23.7056C13.5421 23.7298 13.5904 23.754 13.663 23.8024C13.6872 23.8024 13.6872 23.8024 13.7114 23.8266C13.7598 23.8508 13.8081 23.875 13.8565 23.875C13.9291 23.8991 14.0016 23.9475 14.0984 23.9717C14.1468 23.9959 14.1951 23.9959 14.2435 24.0201C14.2919 24.0443 14.3161 24.0443 14.3645 24.0685C14.3886 24.0685 14.437 24.0926 14.4612 24.0926C14.5338 24.1168 14.5821 24.141 14.6547 24.141C14.6789 24.141 14.7273 24.1652 14.7515 24.1652C14.7998 24.1894 14.8724 24.1894 14.9208 24.2136C14.9208 24.2136 14.9208 24.2136 14.945 24.2136C14.9933 24.2378 15.0417 24.2378 15.0901 24.262C15.1385 24.2862 15.211 24.2862 15.2594 24.3103C15.2836 24.3103 15.3078 24.3103 15.332 24.3345C15.3562 24.3345 15.3804 24.3345 15.4045 24.3587C15.4529 24.3587 15.4771 24.3829 15.5255 24.3829C15.5739 24.3829 15.598 24.4071 15.6464 24.4071C15.6706 24.4071 15.6706 24.4071 15.6948 24.4071C15.6948 24.4071 15.6948 24.4071 15.719 24.4071C15.7432 24.4071 15.7432 24.4071 15.7674 24.4071C15.7916 24.4071 15.8399 24.4071 15.8641 24.4313C15.8883 24.4313 15.9367 24.4313 15.9609 24.4555C15.9851 24.4555 16.0092 24.4555 16.0334 24.4555C16.0576 24.4555 16.0818 24.4555 16.106 24.4555C16.1302 24.4555 16.1544 24.4555 16.1786 24.4555C16.2027 24.4555 16.2269 24.4555 16.2511 24.4555C16.2753 24.4555 16.2995 24.4555 16.3237 24.4555C16.3237 24.4555 16.3237 24.4555 16.3479 24.4555C16.3721 24.4555 16.3963 24.4555 16.3963 24.4555C16.4204 24.4555 16.4446 24.4555 16.4688 24.4555C16.493 24.4555 16.5172 24.4555 16.5414 24.4555C16.5656 24.4555 16.5898 24.4555 16.6139 24.4555C16.6381 24.4555 16.6381 24.4555 16.6623 24.4555C16.6865 24.4555 16.7107 24.4555 16.7349 24.4555C16.7591 24.4555 16.7833 24.4555 16.8074 24.4555C16.8316 24.4555 16.8558 24.4555 16.88 24.4555C16.9042 24.4555 16.9284 24.4555 16.9526 24.4555C16.9768 24.4555 17.001 24.4555 17.0251 24.4555C17.0493 24.4555 17.0493 24.4555 17.0735 24.4555C17.0977 24.4555 17.1219 24.4555 17.1461 24.4555C17.1703 24.4555 17.1945 24.4555 17.1945 24.4555C17.2186 24.4555 17.2186 24.4555 17.2428 24.4555C17.267 24.4555 17.267 24.4555 17.2912 24.4555C17.3154 24.4555 17.3154 24.4555 17.3396 24.4555C17.3638 24.4555 17.3638 24.4555 17.388 24.4555C17.4121 24.4555 17.4121 24.4555 17.4363 24.4555C17.4605 24.4555 17.4605 24.4555 17.4847 24.4555C17.5089 24.4555 17.5089 24.4555 17.5331 24.4555C17.5573 24.4555 17.5573 24.4555 17.5815 24.4555C17.6057 24.4555 17.6057 24.4555 17.6298 24.4555C17.654 24.4555 17.654 24.4555 17.6782 24.4555C17.7024 24.4555 17.7024 24.4555 17.7266 24.4555C17.7508 24.4555 17.7508 24.4555 17.775 24.4555C17.7992 24.4555 17.7992 24.4555 17.8233 24.4555C17.8475 24.4555 17.8475 24.4555 17.8717 24.4555C17.8959 24.4555 17.8959 24.4555 17.9201 24.4555C17.9201 24.4555 17.9201 24.4555 17.9443 24.4555H17.9685C17.9927 24.4555 17.9927 24.4555 18.0168 24.4555C18.041 24.4555 18.041 24.4555 18.0652 24.4555C18.0894 24.4555 18.0894 24.4555 18.1136 24.4555C18.1378 24.4555 18.1378 24.4555 18.162 24.4555C18.1862 24.4555 18.1862 24.4555 18.2104 24.4555C18.2345 24.4555 18.2345 24.4555 18.2587 24.4555C18.2829 24.4555 18.2829 24.4555 18.3071 24.4555C18.3313 24.4555 18.3313 24.4555 18.3555 24.4555C18.3797 24.4555 18.3797 24.4555 18.4039 24.4555C18.428 24.4555 18.428 24.4555 18.4522 24.4555C18.4764 24.4555 18.4764 24.4555 18.5006 24.4555C18.5248 24.4555 18.5248 24.4555 18.549 24.4313C18.5732 24.4313 18.5732 24.4313 18.5974 24.4071H18.6215C18.6457 24.4071 18.6457 24.4071 18.6699 24.3829C18.6941 24.3829 18.6941 24.3829 18.7183 24.3587C18.7425 24.3587 18.7425 24.3587 18.7667 24.3345C18.7909 24.3345 18.7909 24.3345 18.8151 24.3103C18.8392 24.3103 18.8392 24.3103 18.8634 24.2862C18.8876 24.2862 18.8876 24.2862 18.9118 24.262H18.936C18.9602 24.262 18.9602 24.262 18.9844 24.2378C19.0086 24.2378 19.0086 24.2378 19.0327 24.2136C19.0327 24.2136 19.0569 24.2136 19.0569 24.1894C19.0569 24.1894 19.0811 24.1894 19.0811 24.1652C19.0811 24.1652 19.1053 24.1652 19.1053 24.141C19.1053 24.141 19.1295 24.141 19.1295 24.1168H19.1537C19.1537 24.1168 19.1537 24.1168 19.1779 24.1168C19.1779 24.1168 19.2021 24.1168 19.2021 24.0926C19.2021 24.0926 19.2263 24.0926 19.2263 24.0685C19.2263 24.0685 19.2504 24.0685 19.2504 24.0443C19.2504 24.0443 19.2746 24.0443 19.2746 24.0201C19.2746 23.9959 19.2988 24.0201 19.2988 23.9959C19.2988 23.9959 19.323 23.9959 19.323 23.9717C19.323 23.9717 19.3472 23.9717 19.3472 23.9475C19.3472 23.9475 19.3714 23.9475 19.3714 23.9233L19.3956 23.8991L19.4198 23.875L19.4439 23.8508L19.4681 23.8266L19.4923 23.8024L19.5165 23.7782C19.5165 23.7782 19.5165 23.7782 19.5407 23.7782C19.5407 23.7782 19.5407 23.7782 19.5649 23.7782L19.5891 23.754L19.6133 23.7298L19.6374 23.7056L19.6616 23.6815L19.6858 23.6573L19.71 23.6331L19.7342 23.6089L19.7584 23.5847L19.7826 23.5605L19.8068 23.5363L19.831 23.5121L19.8551 23.4879L19.8793 23.4638L19.9035 23.4396L22.9754 21.0208L22.9512 21.045C22.8786 21.0933 22.8061 21.1417 22.7335 21.1901Z" fill="white"/>
<path d="M146.12 21.168C146.12 21.8507 146.003 22.4693 145.768 23.024C145.533 23.568 145.213 24.032 144.808 24.416C144.403 24.8 143.923 25.0987 143.368 25.312C142.813 25.5147 142.211 25.616 141.56 25.616C140.909 25.616 140.307 25.5147 139.752 25.312C139.197 25.0987 138.712 24.8 138.296 24.416C137.891 24.032 137.571 23.568 137.336 23.024C137.112 22.4693 137 21.8507 137 21.168V14H139.016V21.088C139.016 21.4187 139.059 21.7493 139.144 22.08C139.229 22.4 139.368 22.688 139.56 22.944C139.763 23.2 140.024 23.408 140.344 23.568C140.675 23.728 141.08 23.808 141.56 23.808C142.04 23.808 142.44 23.728 142.76 23.568C143.091 23.408 143.352 23.2 143.544 22.944C143.747 22.688 143.891 22.4 143.976 22.08C144.061 21.7493 144.104 21.4187 144.104 21.088V14H146.12V21.168Z" fill="#0D1B2A"/>
<path d="M148.518 14H150.534V25.328H148.518V14Z" fill="#0D1B2A"/>
</svg>
