<svg width="164" height="40" viewBox="0 0 164 40" fill="none" xmlns="http://www.w3.org/2000/svg">
<path d="M35.6154 20.0712C35.6154 19.69 35.5677 19.261 35.5201 18.8798C35.4724 18.4508 35.3771 18.0696 35.2818 17.6406C35.1864 17.2594 35.0911 16.8304 34.9481 16.4492C34.8052 16.0679 34.6622 15.639 34.5192 15.2577C34.3762 14.8764 34.1856 14.4952 33.995 14.1139C33.8043 13.7326 33.6137 13.3513 33.3754 12.9701C33.1371 12.5888 32.9465 12.2552 32.7082 11.8739C32.4699 11.5403 32.2316 11.159 31.9456 10.8254C31.4214 10.1582 30.8495 9.49099 30.2299 8.91908C29.944 8.63313 29.6104 8.34718 29.2768 8.06122C28.9431 7.77527 28.6095 7.53698 28.2759 7.29868C27.9423 7.06039 27.6087 6.8221 27.2274 6.5838C26.8938 6.39317 26.5125 6.15487 26.1789 5.96424C26.1789 5.96424 26.1789 5.96424 26.1313 5.96424C25.7977 5.7736 25.4641 5.63063 25.0828 5.48765C24.9875 5.43999 24.8445 5.39233 24.7492 5.34467C24.5109 5.24936 24.2249 5.15404 23.9866 5.05872C23.939 5.05872 23.8913 5.01106 23.8437 5.01106C23.51 4.91575 23.1288 4.82043 22.7952 4.72511C22.4139 4.62979 22.0326 4.58213 21.699 4.53448C21.3177 4.48682 20.9841 4.48682 20.6505 4.48682C20.3169 4.48682 19.9833 4.53448 19.6497 4.58213C19.3161 4.62979 18.9825 4.67745 18.6965 4.77277C18.4106 4.86809 18.0769 4.9634 17.791 5.05872C17.505 5.15404 17.2191 5.29702 16.9808 5.48765C15.694 6.25019 14.6455 7.44166 14.0736 8.91908C14.2166 8.87142 14.4072 8.87142 14.5502 8.87142C14.8361 8.82376 15.1221 8.82376 15.4557 8.82376C15.7417 8.82376 16.0753 8.82376 16.4089 8.87142C16.7425 8.91908 17.0761 8.96674 17.4097 9.0144C17.7433 9.10972 18.1246 9.15738 18.4582 9.30035C18.5059 9.30035 18.5535 9.34801 18.6012 9.34801C18.8871 9.44333 19.1254 9.53865 19.3637 9.63396C19.459 9.68162 19.602 9.72928 19.6973 9.77694C20.031 9.91992 20.3646 10.0629 20.7458 10.2535C20.7458 10.2535 20.7458 10.2535 20.7935 10.2535C21.1271 10.4442 21.5084 10.6348 21.842 10.8731C22.1756 11.1114 22.5569 11.302 22.8905 11.588C23.2241 11.8263 23.5577 12.1122 23.8913 12.3505C24.2249 12.6365 24.5109 12.9224 24.8445 13.2084C25.1304 13.4943 25.4641 13.8279 25.75 14.1139C26.036 14.4475 26.3219 14.7811 26.5602 15.1147C26.8462 15.4483 27.0845 15.7819 27.3227 16.1632C27.561 16.4968 27.7993 16.8781 27.99 17.2594C28.2283 17.6406 28.4189 18.0219 28.6095 18.4032C28.8002 18.7844 28.9908 19.1657 29.1338 19.547C29.2768 19.9283 29.4197 20.3572 29.5627 20.7385C29.7057 21.1197 29.801 21.5487 29.8963 21.9299C29.9916 22.3112 30.087 22.7401 30.1346 23.1691C30.1823 23.4073 30.1823 23.598 30.2299 23.8363V23.8839C30.2299 24.0746 30.2776 24.2652 30.2776 24.4082C30.2776 24.7418 30.2776 25.0754 30.2776 25.409C30.2776 25.4567 30.2776 25.5043 30.2776 25.5997C30.2776 25.9333 30.2299 26.2192 30.1823 26.5528C30.1823 26.6005 30.1823 26.6481 30.1346 26.6958C30.087 26.9818 30.0393 27.3154 29.944 27.6013C29.944 27.649 29.944 27.649 29.944 27.6966C29.8487 27.9826 29.7533 28.2685 29.658 28.5545C29.658 28.5545 29.658 28.6022 29.6104 28.6022C31.0401 28.3639 32.2793 27.792 33.2801 26.8864C33.3754 26.7911 33.4707 26.7435 33.566 26.6481C33.6137 26.6005 33.6137 26.6005 33.6614 26.5528C33.7567 26.4575 33.852 26.3145 33.9473 26.2192C34.0426 26.1239 34.0903 26.0286 34.1856 25.9333C34.2333 25.8856 34.2333 25.8379 34.2809 25.8379C34.3762 25.695 34.4239 25.5997 34.5192 25.4567C34.5669 25.3614 34.6622 25.266 34.7099 25.1707C34.7099 25.1231 34.7575 25.0754 34.7575 25.0754C34.8528 24.9324 34.9005 24.7895 34.9481 24.6465C34.9958 24.5035 35.0911 24.4082 35.1388 24.2652V24.2175C35.1864 24.0746 35.2341 23.9316 35.2818 23.741C35.3294 23.598 35.3771 23.5027 35.4247 23.3597C35.4247 23.312 35.4247 23.312 35.4247 23.2644C35.4724 23.0737 35.5201 22.9308 35.5201 22.7401C35.5677 22.5971 35.5677 22.5018 35.6154 22.3589C35.6154 22.3112 35.6154 22.2635 35.663 22.2159C35.7107 21.9776 35.7107 21.6916 35.7583 21.4533C35.7583 21.4057 35.7583 21.358 35.7583 21.3104C35.7583 21.2627 35.7583 21.215 35.7583 21.1197C35.663 20.7861 35.663 20.4525 35.6154 20.0712Z" fill="url(#paint0_linear_65_124)"/>
<path d="M35.663 31.7478C35.5677 31.7955 35.5201 31.8431 35.4247 31.8908C35.3294 31.9385 35.2818 31.9861 35.1865 32.0338C35.1388 32.0338 35.1388 32.0814 35.0911 32.0814C35.0435 32.1291 34.9482 32.1767 34.9005 32.1767C34.8528 32.2244 34.7575 32.2721 34.7099 32.2721C34.6622 32.2721 34.6145 32.3197 34.5669 32.3197C34.4716 32.3674 34.4239 32.415 34.3286 32.415C34.2809 32.4627 34.2333 32.4627 34.1856 32.5104C34.138 32.558 34.0903 32.558 33.995 32.6057C33.8997 32.6533 33.852 32.6533 33.7567 32.701C33.709 32.701 33.6614 32.7487 33.6614 32.7487C33.5661 32.7963 33.5184 32.7963 33.4231 32.844C33.3278 32.8916 33.2801 32.8916 33.1848 32.9393C33.1371 32.9393 33.1371 32.9393 33.0895 32.9869C32.9942 33.0346 32.8512 33.0346 32.7559 33.0823C32.7082 33.0823 32.6129 33.1299 32.5652 33.1299H32.5176C32.3269 33.1776 32.1363 33.2252 31.9457 33.2729H31.898C31.7074 33.3206 31.5644 33.3206 31.3738 33.3682H31.3261C31.2308 33.3682 31.1831 33.3682 31.0878 33.4159C30.9925 33.4159 30.8495 33.4635 30.7542 33.4635C30.7065 33.4635 30.7065 33.4635 30.6589 33.4635C30.5636 33.4635 30.4682 33.4635 30.4206 33.4635C30.3253 33.4635 30.2299 33.4635 30.1823 33.4635C30.1346 33.4635 30.087 33.4635 30.0393 33.4635C29.944 33.4635 29.8487 33.4635 29.7534 33.4635C29.7057 33.4635 29.6104 33.4635 29.5627 33.4635C29.5151 33.4635 29.4197 33.4635 29.3721 33.4635C29.2768 33.4635 29.1814 33.4635 29.0861 33.4635C29.0385 33.4635 28.9908 33.4635 28.9432 33.4635C28.8478 33.4635 28.7525 33.4635 28.6572 33.4159C28.5619 33.4159 28.4666 33.4159 28.3713 33.4159C28.3236 33.4159 28.3236 33.4159 28.2759 33.4159C28.133 33.4159 28.0376 33.3682 27.8947 33.3682C27.7993 33.3682 27.7517 33.3682 27.6564 33.3206C27.6564 33.3206 27.6564 33.3206 27.6087 33.3206C27.6087 33.3206 27.6087 33.3206 27.5611 33.3206C27.3228 33.2729 27.1321 33.2252 26.8938 33.1776C26.6555 33.1299 26.3696 33.0823 26.1313 32.9869C26.1313 32.9869 26.1313 32.9869 26.0836 32.9869C25.9883 32.9869 25.893 32.9393 25.8453 32.9393C25.3688 32.7963 24.8922 32.6533 24.4156 32.4627C24.2726 32.415 24.1296 32.3674 23.939 32.2721C23.796 32.2244 23.7007 32.1767 23.5577 32.1291C23.4147 32.0814 23.3194 32.0338 23.1764 31.9861C23.0811 31.9385 22.9858 31.8908 22.9382 31.8908C22.6999 31.7955 22.5092 31.7002 22.2709 31.5572C22.2233 31.5572 22.2233 31.5095 22.1756 31.5095C21.9373 31.4142 21.7467 31.2712 21.5084 31.1283C21.4607 31.1283 21.4131 31.0806 21.3654 31.0329C21.1271 30.89 20.9365 30.7946 20.6982 30.6517C20.6505 30.604 20.5552 30.5563 20.5076 30.5087C20.3169 30.4134 20.1739 30.2704 19.9833 30.1751C19.7927 30.0798 19.6497 29.9368 19.4591 29.8415C19.4114 29.7938 19.3161 29.7462 19.2684 29.6985C19.0301 29.5079 18.7918 29.3649 18.5535 29.1742C18.3153 28.9836 18.077 28.793 17.8863 28.6023C17.7433 28.507 17.648 28.364 17.5051 28.2687C17.4097 28.1734 17.3144 28.0781 17.2191 28.0304C16.9808 27.8398 16.7902 27.6492 16.5519 27.4109C16.4089 27.2679 16.2659 27.1249 16.1229 26.9819C15.9323 26.7913 15.7417 26.6007 15.5987 26.41C15.5034 26.3147 15.4557 26.2194 15.3604 26.1241C15.3128 26.0288 15.2174 25.9811 15.1698 25.8858C15.0268 25.7428 14.8838 25.5998 14.7885 25.4092C14.5979 25.1709 14.4072 24.9326 14.2166 24.6943C14.1213 24.599 14.0736 24.5037 13.9783 24.4084C13.883 24.2654 13.7877 24.1224 13.6447 23.9794C13.4541 23.7411 13.3111 23.5029 13.1204 23.2646C13.0251 23.1692 12.9775 23.0263 12.9298 22.9309C12.8345 22.788 12.7392 22.645 12.6439 22.502C12.5009 22.2637 12.3102 21.9778 12.1673 21.7395C12.0243 21.5012 11.8813 21.2152 11.7383 20.9769C11.643 20.7863 11.5477 20.5957 11.4524 20.3574C11.4047 20.3097 11.4047 20.2144 11.3571 20.1667C11.3094 20.0238 11.2618 19.9284 11.1664 19.7855C11.1188 19.6425 11.0235 19.4995 10.9758 19.3565C10.8805 19.1659 10.7852 18.9753 10.7375 18.737C10.6422 18.5463 10.5945 18.3557 10.4992 18.1651C10.4516 18.0221 10.3562 17.8315 10.3086 17.6885C10.2133 17.4025 10.1179 17.1166 10.0226 16.8306C9.92731 16.5447 9.83199 16.2587 9.78433 16.0204C9.68902 15.5915 9.5937 15.1626 9.49838 14.7336C9.45072 14.5907 9.45072 14.4477 9.40306 14.3047C9.3554 14.0188 9.30775 13.7328 9.26009 13.4469C9.26009 13.3039 9.21243 13.1609 9.21243 13.0179C9.21243 12.9703 9.21243 12.9226 9.21243 12.8749C9.21243 12.7796 9.21243 12.732 9.21243 12.6843C9.21243 12.6367 9.21243 12.589 9.21243 12.589C9.21243 12.5413 9.21243 12.4937 9.21243 12.446C9.21243 12.3984 9.21243 12.303 9.21243 12.2554C9.21243 12.1124 9.21243 12.0171 9.21243 11.8741C9.21243 11.8741 9.21243 11.8741 9.21243 11.8265C9.21243 11.7788 9.21243 11.7311 9.21243 11.6835C9.21243 11.5405 9.21243 11.3499 9.21243 11.2069C9.21243 11.0639 9.21243 10.9209 9.21243 10.7303C9.21243 10.5397 9.21243 10.349 9.21243 10.1584C9.21243 10.1107 9.21243 10.0154 9.21243 9.96776C9.21243 9.77713 9.21243 9.58649 9.26009 9.44352C9.26009 9.30054 9.30775 9.20522 9.30775 9.06225C9.30775 8.96693 9.3554 8.82395 9.3554 8.72864C9.3554 8.58566 9.40306 8.49034 9.40306 8.34737C9.40306 8.20439 9.45072 8.10907 9.45072 7.9661C9.49838 7.82312 9.49838 7.68014 9.54604 7.58483C9.5937 7.48951 9.5937 7.39419 9.64136 7.25121C9.68902 7.10824 9.73667 7.01292 9.73667 6.86994C9.78433 6.77463 9.78433 6.63165 9.83199 6.53633C9.87965 6.44102 9.92731 6.3457 9.92731 6.25038C9.97497 6.15506 9.97497 6.05975 10.0226 5.96443C10.0703 5.86911 10.1179 5.77379 10.1656 5.63082C10.2133 5.5355 10.2609 5.44018 10.3086 5.34486C10.3562 5.24955 10.4039 5.10657 10.4992 5.01125C10.5469 4.91594 10.5945 4.82062 10.6422 4.77296C10.6898 4.67764 10.7852 4.58232 10.8328 4.43935C10.8805 4.34403 10.9281 4.24871 10.9758 4.15339C11.0235 4.05808 11.1188 3.96276 11.1664 3.86744C11.2141 3.77213 11.2618 3.72447 11.3094 3.62915C11.3571 3.53383 11.4524 3.43851 11.5 3.39086C11.5477 3.29554 11.5954 3.24788 11.6907 3.15256C11.786 3.05724 11.8337 2.96193 11.929 2.86661C11.9766 2.81895 12.072 2.72363 12.1196 2.67597C12.2149 2.58066 12.2626 2.533 12.3579 2.43768C12.4056 2.39002 12.5009 2.2947 12.5485 2.24704C12.6439 2.15173 12.7392 2.10407 12.7868 2.00875C12.8822 1.96109 12.9298 1.86577 13.0251 1.81812L7.54437 6.15506C7.40139 6.29804 7.25842 6.39336 7.11544 6.53633L7.06778 6.58399C6.92481 6.72697 6.78183 6.82229 6.68651 6.96526C6.68651 6.96526 6.63885 7.01292 6.63885 7.06058C6.49588 7.20356 6.40056 7.34653 6.25758 7.48951L6.20993 7.53717C6.06695 7.68014 5.97163 7.82312 5.87631 7.9661C5.87631 7.9661 5.87631 8.01375 5.82866 8.01375C5.73334 8.15673 5.59036 8.34737 5.49504 8.49034C5.49504 8.49034 5.49504 8.538 5.44739 8.538C5.35207 8.68098 5.25675 8.87161 5.16143 9.06225C5.16143 9.10991 5.11377 9.10991 5.11377 9.15756C5.01846 9.3482 4.92314 9.49118 4.82782 9.68181C4.82782 9.72947 4.78016 9.72947 4.78016 9.77713C4.68485 9.96776 4.63719 10.1107 4.54187 10.3014C4.54187 10.349 4.54187 10.349 4.49421 10.3967C4.39889 10.5873 4.35123 10.778 4.25592 10.9686C4.20826 11.1592 4.11294 11.3975 4.06528 11.5882C4.06528 11.6358 4.06528 11.6358 4.06528 11.6835C4.01762 11.8741 3.96996 12.0648 3.9223 12.303C3.9223 12.3507 3.92231 12.3984 3.87465 12.3984C3.82699 12.589 3.77933 12.8273 3.77933 13.0179C3.77933 13.0656 3.77933 13.0656 3.77933 13.1132C3.73167 13.3515 3.73167 13.5422 3.68401 13.7805V13.8281C3.68401 14.0664 3.63635 14.2571 3.63635 14.4953V14.543C3.63635 14.7813 3.63635 15.0196 3.63635 15.2579C3.63635 15.3055 3.63635 15.3532 3.63635 15.3532C3.63635 15.5915 3.63635 15.8298 3.63635 16.0681V16.1157C3.63635 16.1634 3.63635 16.1634 3.63635 16.2111C3.63635 16.3064 3.63635 16.4494 3.63635 16.5447C3.63635 16.5923 3.63635 16.64 3.63635 16.64C3.63635 16.6877 3.63635 16.6877 3.63635 16.7353C3.63635 16.783 3.63635 16.8306 3.63635 16.8783C3.63635 16.9259 3.63635 16.9736 3.63635 17.0213C3.63635 17.0689 3.63635 17.1166 3.63635 17.2119C3.63635 17.2596 3.63635 17.3072 3.63635 17.3549V17.4025C3.63635 17.5455 3.68401 17.6408 3.68401 17.7838C3.68401 17.8791 3.68401 17.9268 3.73167 18.0221C3.73167 18.1174 3.77933 18.1651 3.77933 18.2604C3.77933 18.3557 3.82699 18.4034 3.82699 18.4987C3.82699 18.5463 3.82699 18.594 3.82699 18.6417C3.82699 18.6417 3.82699 18.6417 3.82699 18.6893C3.82699 18.737 3.82699 18.737 3.82699 18.7846C3.82699 18.88 3.87465 18.9276 3.87465 19.0229C3.87465 19.1182 3.9223 19.1659 3.9223 19.2612C3.9223 19.3089 3.96996 19.3565 3.96996 19.4519C3.96996 19.4995 3.96996 19.5472 4.01762 19.5948C4.01762 19.5948 4.01762 19.5948 4.01762 19.6425C4.01762 19.6902 4.06528 19.7378 4.06528 19.8331C4.06528 19.8808 4.11294 19.9284 4.11294 20.0238C4.11294 20.0714 4.1606 20.1191 4.1606 20.2144C4.1606 20.2621 4.20826 20.3097 4.20826 20.405C4.20826 20.4527 4.20826 20.5003 4.25592 20.5003V20.548C4.25592 20.5957 4.30358 20.6433 4.30358 20.691C4.30358 20.7386 4.35123 20.7863 4.35123 20.834C4.35123 20.8816 4.39889 20.9293 4.39889 20.9769C4.39889 21.0246 4.44655 21.0723 4.44655 21.1199C4.44655 21.1676 4.49421 21.2152 4.49421 21.2629V21.3106V21.3582C4.49421 21.4059 4.54187 21.4535 4.54187 21.5012C4.54187 21.5488 4.58953 21.5965 4.58953 21.6442C4.58953 21.6918 4.63719 21.7395 4.63719 21.7871C4.63719 21.8348 4.68485 21.8825 4.68485 21.9301C4.68485 21.9778 4.7325 22.0254 4.7325 22.0731C4.7325 22.1207 4.7325 22.1207 4.78016 22.1684V22.2161C4.78016 22.2637 4.82782 22.3114 4.82782 22.359C4.82782 22.4067 4.87548 22.4544 4.87548 22.502C4.87548 22.5497 4.92314 22.5973 4.92314 22.645C4.92314 22.6927 4.9708 22.7403 4.9708 22.788C4.9708 22.8356 5.01846 22.8833 5.01846 22.9309C5.01846 22.9786 5.06612 23.0263 5.06612 23.0739C5.06612 23.0739 5.06612 23.1216 5.11377 23.1216V23.1692C5.11377 23.2169 5.16143 23.2646 5.16143 23.2646C5.16143 23.3122 5.20909 23.3599 5.20909 23.3599C5.20909 23.4075 5.25675 23.4552 5.25675 23.4552C5.25675 23.5029 5.30441 23.5505 5.30441 23.5505L5.35207 23.6458C5.35207 23.6935 5.39973 23.7411 5.39973 23.7411C5.39973 23.7888 5.44739 23.7888 5.44739 23.8365C5.44739 23.8841 5.49504 23.8841 5.49504 23.9318C5.49504 23.9794 5.5427 23.9794 5.5427 24.0271C5.5427 24.0748 5.59036 24.0748 5.59036 24.1224C5.59036 24.1701 5.63802 24.1701 5.63802 24.2177C5.63802 24.2654 5.68568 24.2654 5.68568 24.3131C5.68568 24.3607 5.73334 24.3607 5.73334 24.4084C5.73334 24.456 5.781 24.456 5.781 24.5037C5.781 24.5037 5.781 24.5513 5.82866 24.5513V24.599C5.82866 24.6467 5.87631 24.6467 5.87631 24.6943C5.87631 24.742 5.92397 24.742 5.92397 24.7896C5.92397 24.8373 5.97163 24.8373 5.97163 24.885C5.97163 24.9326 6.01929 24.9326 6.01929 24.9803C6.01929 25.0279 6.06695 25.0279 6.06695 25.0756C6.06695 25.1233 6.11461 25.1233 6.11461 25.1709C6.11461 25.2186 6.16227 25.2186 6.16227 25.2662C6.16227 25.2662 6.16227 25.3139 6.20993 25.3139C6.20993 25.3139 6.20993 25.3139 6.20993 25.3615C6.20993 25.4092 6.25758 25.4092 6.25758 25.4569C6.25758 25.5045 6.30524 25.5045 6.30524 25.5522C6.30524 25.5998 6.3529 25.5998 6.3529 25.6475C6.3529 25.6952 6.40056 25.6952 6.40056 25.7428C6.40056 25.7905 6.44822 25.7905 6.44822 25.8381C6.44822 25.8858 6.49588 25.8858 6.49588 25.9334C6.49588 25.9811 6.54354 25.9811 6.54354 26.0288C6.54354 26.0764 6.5912 26.0764 6.5912 26.1241C6.5912 26.1717 6.63885 26.1717 6.63885 26.2194C6.63885 26.2671 6.68651 26.2671 6.68651 26.3147C6.68651 26.3624 6.73417 26.3624 6.73417 26.41C6.73417 26.4577 6.78183 26.4577 6.78183 26.5054C6.78183 26.553 6.82949 26.553 6.82949 26.6007C6.82949 26.6483 6.87715 26.6483 6.87715 26.696C6.87715 26.7436 6.92481 26.7437 6.92481 26.7913C6.92481 26.839 6.97247 26.839 6.97247 26.8866L7.02012 26.9343C7.02012 26.9819 7.06778 26.9819 7.06778 27.0296C7.06778 27.0773 7.11544 27.0773 7.11544 27.1249C7.11544 27.1726 7.1631 27.1726 7.1631 27.2202C7.1631 27.2679 7.21076 27.2679 7.21076 27.3156C7.21076 27.3632 7.25842 27.3632 7.25842 27.4109C7.25842 27.4585 7.30608 27.4585 7.30608 27.5062C7.30608 27.5538 7.35374 27.5538 7.35374 27.6015C7.54437 27.6015 7.54437 27.6015 7.54437 27.6015C7.54437 27.6492 7.59203 27.6492 7.59203 27.6968C7.59203 27.7445 7.63969 27.7445 7.63969 27.7921C7.63969 27.8398 7.68735 27.8398 7.68735 27.8875C7.68735 27.9351 7.73501 27.9351 7.73501 27.9828C7.73501 28.0304 7.78267 28.0304 7.78267 28.0781C7.78267 28.1258 7.83032 28.1258 7.83032 28.1734C7.83032 28.2211 7.87798 28.2211 7.87798 28.2687C7.87798 28.3164 7.92564 28.3164 7.92564 28.364L7.9733 28.4117C7.9733 28.4594 8.02096 28.4594 8.02096 28.507C8.02096 28.5547 8.06862 28.5547 8.06862 28.6023C8.06862 28.65 8.11628 28.65 8.11628 28.6977C8.11628 28.7453 8.16393 28.7453 8.16393 28.793C8.16393 28.8406 8.21159 28.8406 8.21159 28.8883C8.21159 28.936 8.25925 28.936 8.25925 28.9836C8.25925 29.0313 8.30691 29.0313 8.30691 29.0789L8.35457 29.1266C8.35457 29.1266 8.35457 29.1266 8.35457 29.1742C8.35457 29.2219 8.40223 29.2219 8.40223 29.2696C8.40223 29.3172 8.44989 29.3172 8.44989 29.3649C8.44989 29.4125 8.49755 29.4125 8.49755 29.4602C8.49755 29.5079 8.54521 29.5079 8.54521 29.5555C8.54521 29.6032 8.59286 29.6032 8.59286 29.6508C8.59286 29.6985 8.64052 29.6985 8.64052 29.7462C8.64052 29.7938 8.68818 29.7938 8.68818 29.8415C8.68818 29.8891 8.73584 29.8891 8.73584 29.9368C8.73584 29.9844 8.7835 29.9844 8.7835 30.0321C8.7835 30.0798 8.83116 30.0798 8.87882 30.1274C8.92648 30.1751 8.92648 30.1751 8.97413 30.2227C9.02179 30.2704 9.02179 30.2704 9.06945 30.3181C9.11711 30.3657 9.11711 30.3657 9.16477 30.4134C9.21243 30.461 9.21243 30.461 9.26009 30.5087C9.30775 30.5563 9.30775 30.5564 9.3554 30.604C9.40306 30.6517 9.40306 30.6517 9.45072 30.6993C9.45072 30.747 9.49838 30.747 9.49838 30.7946C9.54604 30.8423 9.54604 30.8423 9.5937 30.89C9.64136 30.9376 9.64136 30.9376 9.68902 30.9853C9.73667 31.0329 9.73667 31.0329 9.78433 31.0806C9.83199 31.1283 9.83199 31.1283 9.87965 31.1759C9.92731 31.2236 9.92731 31.2236 9.97497 31.2712C10.0226 31.3189 10.0226 31.3189 10.0703 31.3665L10.1179 31.4142C10.1656 31.4619 10.1656 31.4619 10.2133 31.5095C10.2609 31.5572 10.2609 31.5572 10.3086 31.6048C10.3562 31.6525 10.3562 31.6525 10.4039 31.7002C10.4516 31.7478 10.4516 31.7478 10.4992 31.7955C10.5469 31.8431 10.5469 31.8431 10.5945 31.8908C10.6422 31.9385 10.6422 31.9385 10.6898 31.9861C10.7375 32.0338 10.7375 32.0338 10.7852 32.0814C10.7852 32.0814 10.7852 32.0814 10.8328 32.1291L10.8805 32.1767C10.9281 32.2244 10.9281 32.2244 10.9758 32.2721C11.0235 32.3197 11.0235 32.3197 11.0711 32.3674C11.1188 32.415 11.1188 32.415 11.1664 32.4627C11.2141 32.5104 11.2141 32.5104 11.2618 32.558C11.3094 32.6057 11.3094 32.6057 11.3571 32.6533C11.4047 32.701 11.4047 32.701 11.4524 32.7487L11.5 32.7963L11.5477 32.844C11.5954 32.8916 11.5954 32.8916 11.643 32.9393C11.6907 32.9869 11.6907 32.9869 11.7383 33.0346C11.786 33.0823 11.786 33.0823 11.8337 33.1299C11.8813 33.1776 11.8813 33.1776 11.929 33.2252C11.9766 33.2729 11.9766 33.2729 12.0243 33.3206C12.072 33.3682 12.072 33.3682 12.1196 33.4159C12.1673 33.4635 12.1673 33.4635 12.2149 33.5112C12.2626 33.5589 12.2626 33.5589 12.3102 33.6065C12.3579 33.6542 12.3579 33.6542 12.4056 33.7018C12.4532 33.7495 12.4532 33.7495 12.5009 33.7971C12.5485 33.8448 12.5962 33.8448 12.5962 33.8925C12.6439 33.9401 12.6915 33.9401 12.7392 33.9878C12.7392 33.9878 12.7392 33.9878 12.7868 34.0354C12.8345 34.0354 12.8345 34.0831 12.8822 34.0831C12.9298 34.1308 12.9775 34.1308 13.0251 34.1784C13.0728 34.2261 13.1204 34.2261 13.1681 34.2737C13.2158 34.3214 13.2634 34.3214 13.3111 34.369C13.3587 34.4167 13.4064 34.4167 13.4541 34.4644C13.5017 34.512 13.5017 34.512 13.5494 34.5597C13.597 34.6073 13.6447 34.6073 13.6924 34.655C13.74 34.7027 13.7877 34.7027 13.8353 34.7503C13.883 34.798 13.9306 34.8456 13.9783 34.8456C14.026 34.8933 14.0736 34.941 14.1213 34.941C14.1689 34.941 14.1689 34.9886 14.2166 34.9886C14.2166 34.9886 14.2643 34.9886 14.2643 35.0363C14.3119 35.0839 14.3596 35.1316 14.4072 35.1316C14.4549 35.1793 14.5026 35.1793 14.5502 35.2269C14.5979 35.2746 14.6455 35.2746 14.6932 35.3222C14.7408 35.3699 14.7885 35.3699 14.8362 35.4175C14.8838 35.4652 14.9315 35.5129 15.0268 35.5129C15.1221 35.5605 15.1698 35.6082 15.2651 35.6558C15.3604 35.7035 15.4081 35.7512 15.5034 35.7988C15.551 35.7988 15.551 35.8465 15.5987 35.8465C15.5987 35.8465 15.5987 35.8465 15.6464 35.8465C15.694 35.8465 15.694 35.8941 15.7417 35.8941C15.837 35.9418 15.8847 35.9894 15.98 36.0371C16.0753 36.0848 16.1706 36.1324 16.3136 36.1801C16.3136 36.1801 16.3612 36.1801 16.3612 36.2277C16.4089 36.2277 16.4089 36.2754 16.4566 36.2754C16.5519 36.3231 16.5995 36.3707 16.6949 36.4184C16.8378 36.466 16.9331 36.5614 17.0761 36.609H17.1238C17.2191 36.6567 17.3144 36.7043 17.4097 36.7043C17.5527 36.752 17.648 36.7996 17.791 36.895C17.8387 36.895 17.8387 36.895 17.8863 36.9426C17.9816 36.9903 18.077 37.0379 18.1723 37.0379C18.3153 37.0856 18.4582 37.1809 18.6489 37.2286C18.7442 37.2762 18.8395 37.2762 18.9348 37.3239C19.0301 37.3716 19.0778 37.3716 19.1731 37.4192C19.2208 37.4192 19.3161 37.4669 19.3637 37.4669C19.5067 37.5145 19.602 37.5622 19.745 37.5622C19.7927 37.5622 19.888 37.6098 19.9357 37.6098C20.031 37.6575 20.1739 37.6575 20.2693 37.7052C20.2693 37.7052 20.2693 37.7052 20.3169 37.7052C20.4122 37.7528 20.5076 37.7528 20.6029 37.8005C20.6982 37.8481 20.8412 37.8481 20.9365 37.8958C20.9841 37.8958 21.0318 37.8958 21.0795 37.9435C21.1271 37.9435 21.1748 37.9435 21.2224 37.9911C21.3178 37.9911 21.3654 38.0388 21.4607 38.0388C21.556 38.0388 21.6037 38.0864 21.699 38.0864C21.7467 38.0864 21.7467 38.0864 21.7943 38.0864C21.7943 38.0864 21.7943 38.0864 21.842 38.0864C21.8897 38.0864 21.8897 38.0864 21.9373 38.0864C21.985 38.0864 22.0803 38.0864 22.128 38.1341C22.1756 38.1341 22.2709 38.1341 22.3186 38.1818C22.3662 38.1818 22.4139 38.1818 22.4616 38.1818C22.5092 38.1818 22.5569 38.1818 22.6045 38.1818C22.6522 38.1818 22.6999 38.1818 22.7475 38.1818C22.7952 38.1818 22.8428 38.1818 22.8905 38.1818C22.9382 38.1818 22.9858 38.1818 23.0335 38.1818C23.0335 38.1818 23.0335 38.1818 23.0811 38.1818C23.1288 38.1818 23.1764 38.1818 23.1764 38.1818C23.2241 38.1818 23.2718 38.1818 23.3194 38.1818C23.3671 38.1818 23.4147 38.1818 23.4624 38.1818C23.5101 38.1818 23.5577 38.1818 23.6054 38.1818C23.653 38.1818 23.653 38.1818 23.7007 38.1818C23.7484 38.1818 23.796 38.1818 23.8437 38.1818C23.8913 38.1818 23.939 38.1818 23.9866 38.1818C24.0343 38.1818 24.082 38.1818 24.1296 38.1818C24.1773 38.1818 24.2249 38.1818 24.2726 38.1818C24.3203 38.1818 24.3679 38.1818 24.4156 38.1818C24.4632 38.1818 24.4632 38.1818 24.5109 38.1818C24.5586 38.1818 24.6062 38.1818 24.6539 38.1818C24.7015 38.1818 24.7492 38.1818 24.7492 38.1818C24.7968 38.1818 24.7968 38.1818 24.8445 38.1818C24.8922 38.1818 24.8922 38.1818 24.9398 38.1818C24.9875 38.1818 24.9875 38.1818 25.0351 38.1818C25.0828 38.1818 25.0828 38.1818 25.1305 38.1818C25.1781 38.1818 25.1781 38.1818 25.2258 38.1818C25.2734 38.1818 25.2734 38.1818 25.3211 38.1818C25.3687 38.1818 25.3687 38.1818 25.4164 38.1818C25.4641 38.1818 25.4641 38.1818 25.5117 38.1818C25.5594 38.1818 25.5594 38.1818 25.607 38.1818C25.6547 38.1818 25.6547 38.1818 25.7024 38.1818C25.75 38.1818 25.75 38.1818 25.7977 38.1818C25.8453 38.1818 25.8453 38.1818 25.893 38.1818C25.9407 38.1818 25.9407 38.1818 25.9883 38.1818C26.036 38.1818 26.036 38.1818 26.0836 38.1818C26.1313 38.1818 26.1313 38.1818 26.1789 38.1818C26.1789 38.1818 26.1789 38.1818 26.2266 38.1818H26.2743C26.3219 38.1818 26.3219 38.1818 26.3696 38.1818C26.4172 38.1818 26.4172 38.1818 26.4649 38.1818C26.5126 38.1818 26.5126 38.1818 26.5602 38.1818C26.6079 38.1818 26.6079 38.1818 26.6555 38.1818C26.7032 38.1818 26.7032 38.1818 26.7509 38.1818C26.7985 38.1818 26.7985 38.1818 26.8462 38.1818C26.8938 38.1818 26.8938 38.1818 26.9415 38.1818C26.9891 38.1818 26.9891 38.1818 27.0368 38.1818C27.0845 38.1818 27.0845 38.1818 27.1321 38.1818C27.1798 38.1818 27.1798 38.1818 27.2274 38.1818C27.2751 38.1818 27.2751 38.1818 27.3228 38.1818C27.3704 38.1818 27.3704 38.1818 27.4181 38.1341C27.4657 38.1341 27.4657 38.1341 27.5134 38.0864H27.5611C27.6087 38.0864 27.6087 38.0864 27.6564 38.0388C27.704 38.0388 27.704 38.0388 27.7517 37.9911C27.7993 37.9911 27.7993 37.9911 27.847 37.9435C27.8947 37.9435 27.8947 37.9435 27.9423 37.8958C27.99 37.8958 27.99 37.8958 28.0376 37.8481C28.0853 37.8481 28.0853 37.8481 28.133 37.8005H28.1806C28.2283 37.8005 28.2283 37.8005 28.2759 37.7528C28.3236 37.7528 28.3236 37.7528 28.3713 37.7052C28.3713 37.7052 28.4189 37.7052 28.4189 37.6575C28.4189 37.6575 28.4666 37.6575 28.4666 37.6098C28.4666 37.6098 28.5142 37.6098 28.5142 37.5622C28.5142 37.5622 28.5619 37.5622 28.5619 37.5145H28.6095C28.6095 37.5145 28.6095 37.5145 28.6572 37.5145C28.6572 37.5145 28.7049 37.5145 28.7049 37.4669C28.7049 37.4669 28.7525 37.4669 28.7525 37.4192C28.7525 37.4192 28.8002 37.4192 28.8002 37.3716C28.8002 37.3716 28.8478 37.3716 28.8478 37.3239C28.8478 37.2762 28.8955 37.3239 28.8955 37.2762C28.8955 37.2762 28.9432 37.2762 28.9432 37.2286C28.9432 37.2286 28.9908 37.2286 28.9908 37.1809C28.9908 37.1809 29.0385 37.1809 29.0385 37.1333L29.0861 37.0856L29.1338 37.0379L29.1815 36.9903L29.2291 36.9426L29.2768 36.895L29.3244 36.8473C29.3244 36.8473 29.3244 36.8473 29.3721 36.8473C29.3721 36.8473 29.3721 36.8473 29.4197 36.8473L29.4674 36.7996L29.5151 36.752L29.5627 36.7043L29.6104 36.6567L29.658 36.609L29.7057 36.5614L29.7534 36.5137L29.801 36.466L29.8487 36.4184L29.8963 36.3707L29.944 36.3231L29.9916 36.2754L30.0393 36.2277L30.087 36.1801L36.1396 31.4142L36.092 31.4619C35.949 31.5572 35.806 31.6525 35.663 31.7478Z" fill="url(#paint1_linear_65_124)"/>
<path d="M72.8209 21.554H68.1875V23.8707H72.8209V29.0091C72.8209 30.0487 72.0487 30.8209 71.0091 30.8209H61.2669V23.8707H58.9502V30.8209H53.5445C52.5049 30.8209 52 30.0487 52 29.0091V11.5445C52 10.7722 52.5049 10 53.5445 10H71.0091C72.0487 10 72.8209 10.7722 72.8209 11.5445V21.554ZM61.2669 19.2669V14.6335H58.9502V19.2669H61.2669Z" fill="url(#paint2_linear_65_124)"/>
<path d="M77.3001 30.8209C76.5278 30.8209 75.7556 30.0487 75.7556 29.0091V23.8707H78.0723H82.7058V21.554H78.0723V16.9502H82.7058V14.6335H75.7556V11.5445C75.7556 10.5049 76.5278 10 77.3001 10H92.4777C93.4875 10 94.2598 10.5049 94.2598 11.5445V29.0091C94.2598 30.0487 93.4875 30.8209 92.4777 30.8209H77.3001Z" fill="url(#paint3_linear_65_124)"/>
<path d="M116.641 10.0297C117.413 10.0297 118.185 10.8019 118.185 11.8118V29.2467C118.185 30.019 117.413 30.7912 116.641 30.7912H99.2056C98.1957 30.7912 97.4235 30.019 97.4235 29.2467V11.8118C97.4235 10.8019 98.1957 10.0297 99.2056 10.0297H116.641ZM106.661 26.1875V14.6335H104.344V26.1875H106.661Z" fill="url(#paint4_linear_65_124)"/>
<path d="M142 21.554H137.367V30.8209H125.813V21.554H121.179V11.5445C121.179 10.7722 121.951 10 122.724 10H130.446V16.9502H132.733V10H140.188C141.228 10 142 10.7722 142 11.5445V21.554Z" fill="url(#paint5_linear_65_124)"/>
<path d="M159.272 26.168C159.272 26.8507 159.155 27.4693 158.92 28.024C158.685 28.568 158.365 29.032 157.96 29.416C157.555 29.8 157.075 30.0987 156.52 30.312C155.965 30.5147 155.363 30.616 154.712 30.616C154.061 30.616 153.459 30.5147 152.904 30.312C152.349 30.0987 151.864 29.8 151.448 29.416C151.043 29.032 150.723 28.568 150.488 28.024C150.264 27.4693 150.152 26.8507 150.152 26.168V19H152.168V26.088C152.168 26.4187 152.211 26.7493 152.296 27.08C152.381 27.4 152.52 27.688 152.712 27.944C152.915 28.2 153.176 28.408 153.496 28.568C153.827 28.728 154.232 28.808 154.712 28.808C155.192 28.808 155.592 28.728 155.912 28.568C156.243 28.408 156.504 28.2 156.696 27.944C156.899 27.688 157.043 27.4 157.128 27.08C157.213 26.7493 157.256 26.4187 157.256 26.088V19H159.272V26.168Z" fill="#3A0CA3"/>
<path d="M161.67 19H163.686V30.328H161.67V19Z" fill="#3A0CA3"/>
<defs>
<linearGradient id="paint0_linear_65_124" x1="24.916" y1="4.48682" x2="24.916" y2="28.6022" gradientUnits="userSpaceOnUse">
<stop stop-color="#4361EE"/>
<stop offset="1" stop-color="#3F37C9"/>
</linearGradient>
<linearGradient id="paint1_linear_65_124" x1="19.888" y1="1.81812" x2="19.888" y2="38.1818" gradientUnits="userSpaceOnUse">
<stop stop-color="#560BAD"/>
<stop offset="1" stop-color="#3A0CA3"/>
</linearGradient>
<linearGradient id="paint2_linear_65_124" x1="87.6421" y1="3.31711" x2="87.6421" y2="30.7912" gradientUnits="userSpaceOnUse">
<stop stop-color="#3A0CA3"/>
<stop offset="1" stop-color="#4361EE"/>
</linearGradient>
<linearGradient id="paint3_linear_65_124" x1="87.6421" y1="3.31711" x2="87.6421" y2="30.7912" gradientUnits="userSpaceOnUse">
<stop stop-color="#3A0CA3"/>
<stop offset="1" stop-color="#4361EE"/>
</linearGradient>
<linearGradient id="paint4_linear_65_124" x1="87.6421" y1="3.31711" x2="87.6421" y2="30.7912" gradientUnits="userSpaceOnUse">
<stop stop-color="#3A0CA3"/>
<stop offset="1" stop-color="#4361EE"/>
</linearGradient>
<linearGradient id="paint5_linear_65_124" x1="87.6421" y1="3.31711" x2="87.6421" y2="30.7912" gradientUnits="userSpaceOnUse">
<stop stop-color="#3A0CA3"/>
<stop offset="1" stop-color="#4361EE"/>
</linearGradient>
</defs>
</svg>
