<svg width="232" height="232" viewBox="0 0 232 232" fill="none" xmlns="http://www.w3.org/2000/svg">
<g id="r3dy logo">
<g id="Group 5">
<path id="Vector" d="M206.569 116.414C206.569 114.202 206.293 111.715 206.016 109.503C205.74 107.015 205.187 104.804 204.634 102.316C204.081 100.105 203.529 97.617 202.699 95.4057C201.87 93.1943 201.041 90.7065 200.212 88.4952C199.382 86.2838 198.277 84.0724 197.171 81.8611C196.065 79.6497 194.96 77.4383 193.578 75.227C192.195 73.0156 191.09 71.0806 189.708 68.8693C188.326 66.9343 186.943 64.723 185.285 62.788C182.244 58.9181 178.927 55.0482 175.334 51.7312C173.675 50.0727 171.74 48.4141 169.805 46.7556C167.87 45.0971 165.935 43.715 164 42.3329C162.066 40.9508 160.131 39.5687 157.919 38.1866C155.984 37.0809 153.773 35.6988 151.838 34.5931C151.838 34.5931 151.838 34.5931 151.562 34.5931C149.627 33.4874 147.692 32.6581 145.48 31.8289C144.927 31.5525 144.098 31.276 143.545 30.9996C142.163 30.4468 140.505 29.8939 139.123 29.3411C138.846 29.3411 138.57 29.0647 138.293 29.0647C136.358 28.5118 134.147 27.959 132.212 27.4062C130.001 26.8533 127.789 26.5769 125.854 26.3005C123.643 26.024 121.708 26.024 119.773 26.024C117.838 26.024 115.903 26.3005 113.968 26.5769C112.033 26.8533 110.098 27.1297 108.44 27.6826C106.781 28.2354 104.846 28.7883 103.188 29.3411C101.529 29.8939 99.8708 30.7232 98.4887 31.8289C91.0254 36.2516 84.9441 43.1621 81.6271 51.7312C82.4563 51.4548 83.562 51.4548 84.3913 51.4548C86.0498 51.1783 87.7083 51.1783 89.6433 51.1783C91.3018 51.1783 93.2367 51.1783 95.1717 51.4548C97.1066 51.7312 99.0416 52.0076 100.977 52.284C102.911 52.8369 105.123 53.1133 107.058 53.9426C107.334 53.9426 107.611 54.219 107.887 54.219C109.546 54.7718 110.928 55.3247 112.31 55.8775C112.863 56.1539 113.692 56.4303 114.245 56.7068C116.18 57.536 118.115 58.3653 120.326 59.471C120.326 59.471 120.326 59.471 120.602 59.471C122.537 60.5767 124.749 61.6823 126.684 63.0644C128.619 64.4465 130.83 65.5522 132.765 67.2108C134.7 68.5929 136.635 70.2514 138.57 71.6335C140.505 73.292 142.163 74.9505 144.098 76.6091C145.757 78.2676 147.692 80.2025 149.35 81.8611C151.009 83.796 152.667 85.7309 154.049 87.6659C155.708 89.6008 157.09 91.5358 158.472 93.7472C159.854 95.6821 161.236 97.8935 162.342 100.105C163.724 102.316 164.83 104.528 165.935 106.739C167.041 108.95 168.147 111.162 168.976 113.373C169.805 115.584 170.635 118.072 171.464 120.284C172.293 122.495 172.846 124.983 173.399 127.194C173.952 129.405 174.504 131.893 174.781 134.381C175.057 135.763 175.057 136.869 175.334 138.251V138.527C175.334 139.633 175.61 140.739 175.61 141.568C175.61 143.503 175.61 145.438 175.61 147.373C175.61 147.649 175.61 147.926 175.61 148.478C175.61 150.413 175.334 152.072 175.057 154.007C175.057 154.283 175.057 154.56 174.781 154.836C174.504 156.495 174.228 158.43 173.675 160.088C173.675 160.365 173.675 160.365 173.675 160.641C173.122 162.3 172.57 163.958 172.017 165.617C172.017 165.617 172.017 165.893 171.74 165.893C180.033 164.511 187.22 161.194 193.025 155.942C193.578 155.389 194.13 155.113 194.683 154.56C194.96 154.283 194.96 154.283 195.236 154.007C195.789 153.454 196.342 152.625 196.895 152.072C197.447 151.519 197.724 150.966 198.277 150.413C198.553 150.137 198.553 149.861 198.83 149.861C199.382 149.031 199.659 148.478 200.212 147.649C200.488 147.096 201.041 146.544 201.317 145.991C201.317 145.714 201.594 145.438 201.594 145.438C202.147 144.609 202.423 143.779 202.699 142.95C202.976 142.121 203.529 141.568 203.805 140.739V140.462C204.082 139.633 204.358 138.804 204.634 137.698C204.911 136.869 205.187 136.316 205.464 135.487C205.464 135.21 205.464 135.21 205.464 134.934C205.74 133.828 206.016 132.999 206.016 131.893C206.293 131.064 206.293 130.511 206.569 129.682C206.569 129.405 206.569 129.129 206.846 128.853C207.122 127.47 207.122 125.812 207.399 124.43C207.399 124.153 207.399 123.877 207.399 123.601C207.399 123.324 207.399 123.048 207.399 122.495C206.846 120.56 206.846 118.625 206.569 116.414Z" fill="url(#paint0_linear_139_263)"/>
<path id="Vector_2" d="M206.846 184.137C206.293 184.414 206.016 184.69 205.464 184.966C204.911 185.243 204.634 185.519 204.082 185.796C203.805 185.796 203.805 186.072 203.529 186.072C203.252 186.349 202.699 186.625 202.423 186.625C202.147 186.901 201.594 187.178 201.317 187.178C201.041 187.178 200.764 187.454 200.488 187.454C199.935 187.731 199.659 188.007 199.106 188.007C198.83 188.283 198.553 188.283 198.277 188.56C198 188.836 197.724 188.836 197.171 189.113C196.618 189.389 196.342 189.389 195.789 189.666C195.512 189.666 195.236 189.942 195.236 189.942C194.683 190.218 194.407 190.218 193.854 190.495C193.301 190.771 193.025 190.771 192.472 191.048C192.195 191.048 192.195 191.048 191.919 191.324C191.366 191.601 190.537 191.601 189.984 191.877C189.708 191.877 189.155 192.153 188.878 192.153H188.602C187.496 192.43 186.391 192.706 185.285 192.983H185.008C183.903 193.259 183.074 193.259 181.968 193.535H181.691C181.139 193.535 180.862 193.535 180.309 193.812C179.757 193.812 178.927 194.088 178.374 194.088C178.098 194.088 178.098 194.088 177.822 194.088C177.269 194.088 176.716 194.088 176.439 194.088C175.887 194.088 175.334 194.088 175.057 194.088C174.781 194.088 174.504 194.088 174.228 194.088C173.675 194.088 173.122 194.088 172.57 194.088C172.293 194.088 171.74 194.088 171.464 194.088C171.187 194.088 170.635 194.088 170.358 194.088C169.805 194.088 169.253 194.088 168.7 194.088C168.423 194.088 168.147 194.088 167.87 194.088C167.318 194.088 166.765 194.088 166.212 193.812C165.659 193.812 165.106 193.812 164.553 193.812C164.277 193.812 164.277 193.812 164.001 193.812C163.171 193.812 162.618 193.535 161.789 193.535C161.236 193.535 160.96 193.535 160.407 193.259C160.407 193.259 160.407 193.259 160.131 193.259C160.131 193.259 160.131 193.259 159.854 193.259C158.472 192.983 157.366 192.706 155.984 192.43C154.602 192.153 152.944 191.877 151.562 191.324C151.562 191.324 151.562 191.324 151.285 191.324C150.732 191.324 150.179 191.048 149.903 191.048C147.139 190.218 144.375 189.389 141.61 188.283C140.781 188.007 139.952 187.731 138.846 187.178C138.017 186.901 137.464 186.625 136.635 186.349C135.806 186.072 135.253 185.796 134.423 185.519C133.871 185.243 133.318 184.966 133.041 184.966C131.659 184.414 130.554 183.861 129.171 183.031C128.895 183.031 128.895 182.755 128.619 182.755C127.237 182.202 126.131 181.373 124.749 180.544C124.472 180.544 124.196 180.267 123.919 179.991C122.537 179.162 121.432 178.609 120.05 177.779C119.773 177.503 119.22 177.227 118.944 176.95C117.838 176.397 117.009 175.568 115.903 175.015C114.798 174.462 113.968 173.633 112.863 173.08C112.586 172.804 112.033 172.527 111.757 172.251C110.375 171.145 108.993 170.316 107.611 169.21C106.229 168.105 104.846 166.999 103.741 165.893C102.912 165.341 102.359 164.511 101.529 163.958C100.977 163.406 100.424 162.853 99.8709 162.576C98.4888 161.471 97.3831 160.365 96.001 158.983C95.1717 158.154 94.3425 157.324 93.5132 156.495C92.4075 155.389 91.3018 154.284 90.4726 153.178C89.9197 152.625 89.6433 152.072 89.0905 151.519C88.8141 150.967 88.2612 150.69 87.9848 150.137C87.1555 149.308 86.3263 148.479 85.7734 147.373C84.6677 145.991 83.5621 144.609 82.4564 143.227C81.9035 142.674 81.6271 142.121 81.0743 141.568C80.5214 140.739 79.9686 139.91 79.1393 139.081C78.0336 137.698 77.2044 136.316 76.0987 134.934C75.5459 134.381 75.2694 133.552 74.993 132.999C74.4402 132.17 73.8873 131.341 73.3345 130.512C72.5052 129.129 71.3995 127.471 70.5703 126.089C69.741 124.707 68.9117 123.048 68.0825 121.666C67.5296 120.56 66.9768 119.455 66.424 118.073C66.1475 117.796 66.1475 117.243 65.8711 116.967C65.5947 116.138 65.3183 115.585 64.7654 114.756C64.489 113.926 63.9362 113.097 63.6598 112.268C63.1069 111.162 62.5541 110.056 62.2776 108.674C61.7248 107.569 61.4484 106.463 60.8955 105.357C60.6191 104.528 60.0663 103.422 59.7899 102.593C59.237 100.934 58.6842 99.276 58.1313 97.6174C57.5785 95.9589 57.0257 94.3004 56.7492 92.9183C56.1964 90.4305 55.6435 87.9427 55.0907 85.4549C54.8143 84.6256 54.8143 83.7964 54.5379 82.9671C54.2614 81.3086 53.985 79.6501 53.7086 77.9915C53.7086 77.1623 53.4322 76.333 53.4322 75.5038C53.4322 75.2273 53.4322 74.9509 53.4322 74.6745C53.4322 74.1216 53.4322 73.8452 53.4322 73.5688C53.4322 73.2924 53.4322 73.016 53.4322 73.016C53.4322 72.7395 53.4322 72.4631 53.4322 72.1867C53.4322 71.9103 53.4322 71.3574 53.4322 71.081C53.4322 70.2518 53.4322 69.6989 53.4322 68.8697C53.4322 68.8697 53.4322 68.8697 53.4322 68.5932C53.4322 68.3168 53.4322 68.0404 53.4322 67.764C53.4322 66.9347 53.4322 65.829 53.4322 64.9998C53.4322 64.1705 53.4322 63.3412 53.4322 62.2356C53.4322 61.1299 53.4322 60.0242 53.4322 58.9185C53.4322 58.6421 53.4322 58.0892 53.4322 57.8128C53.4322 56.7071 53.4322 55.6015 53.7086 54.7722C53.7086 53.9429 53.985 53.3901 53.985 52.5608C53.985 52.008 54.2614 51.1787 54.2614 50.6259C54.2614 49.7966 54.5379 49.2438 54.5379 48.4145C54.5379 47.5853 54.8143 47.0324 54.8143 46.2031C55.0907 45.3739 55.0907 44.5446 55.3671 43.9918C55.6435 43.4389 55.6435 42.8861 55.92 42.0568C56.1964 41.2276 56.4728 40.6747 56.4728 39.8455C56.7492 39.2926 56.7492 38.4634 57.0256 37.9105C57.3021 37.3577 57.5785 36.8048 57.5785 36.252C57.8549 35.6992 57.8549 35.1463 58.1313 34.5935C58.4078 34.0406 58.6842 33.4878 58.9606 32.6585C59.237 32.1057 59.5134 31.5528 59.7899 31C60.0663 30.4472 60.3427 29.6179 60.8955 29.0651C61.172 28.5122 61.4484 27.9594 61.7248 27.683C62.0012 27.1301 62.5541 26.5773 62.8305 25.748C63.1069 25.1952 63.3833 24.6423 63.6598 24.0895C63.9362 23.5366 64.489 22.9838 64.7654 22.431C65.0419 21.8781 65.3183 21.6017 65.5947 21.0489C65.8711 20.496 66.424 19.9432 66.7004 19.6668C66.9768 19.1139 67.2532 18.8375 67.8061 18.2846C68.3589 17.7318 68.6353 17.179 69.1882 16.6261C69.4646 16.3497 70.0174 15.7969 70.2938 15.5204C70.8467 14.9676 71.1231 14.6912 71.676 14.1383C71.9524 13.8619 72.5052 13.3091 72.7816 13.0326C73.3345 12.4798 73.8873 12.2034 74.1637 11.6505C74.7166 11.3741 74.993 10.8213 75.5458 10.5449L43.7575 35.6992C42.9282 36.5284 42.0989 37.0813 41.2697 37.9105L40.9932 38.1869C40.164 39.0162 39.3347 39.5691 38.7819 40.3983C38.7819 40.3983 38.5055 40.6747 38.5055 40.9512C37.6762 41.7804 37.1233 42.6097 36.2941 43.4389L36.0177 43.7154C35.1884 44.5446 34.6356 45.3739 34.0827 46.2031C34.0827 46.2031 34.0827 46.4796 33.8063 46.4796C33.2535 47.3088 32.4242 48.4145 31.8714 49.2438C31.8714 49.2438 31.8714 49.5202 31.5949 49.5202C31.0421 50.3495 30.4893 51.4551 29.9364 52.5608C29.9364 52.8373 29.66 52.8372 29.66 53.1137C29.1071 54.2194 28.5543 55.0486 28.0015 56.1543C28.0015 56.4307 27.725 56.4307 27.725 56.7071C27.1722 57.8128 26.8958 58.6421 26.3429 59.7478C26.3429 60.0242 26.3429 60.0242 26.0665 60.3006C25.5137 61.4063 25.2373 62.512 24.6844 63.6177C24.408 64.7233 23.8551 66.1055 23.5787 67.2111C23.5787 67.4876 23.5787 67.4875 23.5787 67.764C23.3023 68.8697 23.0259 69.9753 22.7495 71.3574C22.7495 71.6339 22.7495 71.9103 22.473 71.9103C22.1966 73.016 21.9202 74.3981 21.9202 75.5038C21.9202 75.7802 21.9202 75.7802 21.9202 76.0566C21.6438 77.4387 21.6438 78.5444 21.3674 79.9265V80.2029C21.3674 81.585 21.0909 82.6907 21.0909 84.0728V84.3492C21.0909 85.7313 21.0909 87.1134 21.0909 88.4955C21.0909 88.772 21.0909 89.0484 21.0909 89.0484C21.0909 90.4305 21.0909 91.8126 21.0909 93.1947V93.4711C21.0909 93.7475 21.0909 93.7475 21.0909 94.0239C21.0909 94.5768 21.0909 95.4061 21.0909 95.9589C21.0909 96.2353 21.0909 96.5117 21.0909 96.5117C21.0909 96.7882 21.0909 96.7882 21.0909 97.0646C21.0909 97.341 21.0909 97.6174 21.0909 97.8938C21.0909 98.1703 21.0909 98.4467 21.0909 98.7231C21.0909 98.9995 21.0909 99.276 21.0909 99.8288C21.0909 100.105 21.0909 100.382 21.0909 100.658V100.934C21.0909 101.764 21.3674 102.317 21.3674 103.146C21.3674 103.699 21.3674 103.975 21.6438 104.528C21.6438 105.081 21.9202 105.357 21.9202 105.91C21.9202 106.463 22.1966 106.739 22.1966 107.292C22.1966 107.569 22.1966 107.845 22.1966 108.121C22.1966 108.121 22.1966 108.121 22.1966 108.398C22.1966 108.674 22.1966 108.674 22.1966 108.951C22.1966 109.504 22.473 109.78 22.473 110.333C22.473 110.886 22.7495 111.162 22.7495 111.715C22.7495 111.991 23.0259 112.268 23.0259 112.821C23.0259 113.097 23.0259 113.373 23.3023 113.65C23.3023 113.65 23.3023 113.65 23.3023 113.926C23.3023 114.203 23.5787 114.479 23.5787 115.032C23.5787 115.308 23.8552 115.585 23.8552 116.138C23.8552 116.414 24.1316 116.69 24.1316 117.243C24.1316 117.52 24.408 117.796 24.408 118.349C24.408 118.625 24.408 118.902 24.6844 118.902V119.178C24.6844 119.455 24.9608 119.731 24.9608 120.008C24.9608 120.284 25.2373 120.56 25.2373 120.837C25.2373 121.113 25.5137 121.39 25.5137 121.666C25.5137 121.942 25.7901 122.219 25.7901 122.495C25.7901 122.772 26.0665 123.048 26.0665 123.325V123.601V123.877C26.0665 124.154 26.3429 124.43 26.3429 124.707C26.3429 124.983 26.6194 125.26 26.6194 125.536C26.6194 125.812 26.8958 126.089 26.8958 126.365C26.8958 126.642 27.1722 126.918 27.1722 127.194C27.1722 127.471 27.4486 127.747 27.4486 128.024C27.4486 128.3 27.4486 128.3 27.725 128.577V128.853C27.725 129.129 28.0015 129.406 28.0015 129.682C28.0015 129.959 28.2779 130.235 28.2779 130.512C28.2779 130.788 28.5543 131.064 28.5543 131.341C28.5543 131.617 28.8307 131.894 28.8307 132.17C28.8307 132.446 29.1071 132.723 29.1071 132.999C29.1071 133.276 29.3836 133.552 29.3836 133.829C29.3836 133.829 29.3836 134.105 29.66 134.105V134.381C29.66 134.658 29.9364 134.934 29.9364 134.934C29.9364 135.211 30.2128 135.487 30.2128 135.487C30.2128 135.763 30.4893 136.04 30.4893 136.04C30.4893 136.316 30.7657 136.593 30.7657 136.593L31.0421 137.146C31.0421 137.422 31.3185 137.698 31.3185 137.698C31.3185 137.975 31.5949 137.975 31.5949 138.251C31.5949 138.528 31.8714 138.528 31.8714 138.804C31.8714 139.081 32.1478 139.081 32.1478 139.357C32.1478 139.633 32.4242 139.633 32.4242 139.91C32.4242 140.186 32.7006 140.186 32.7006 140.463C32.7006 140.739 32.977 140.739 32.977 141.015C32.977 141.292 33.2535 141.292 33.2535 141.568C33.2535 141.845 33.5299 141.845 33.5299 142.121C33.5299 142.121 33.5299 142.398 33.8063 142.398V142.674C33.8063 142.95 34.0827 142.95 34.0827 143.227C34.0827 143.503 34.3591 143.503 34.3591 143.78C34.3591 144.056 34.6356 144.056 34.6356 144.333C34.6356 144.609 34.912 144.609 34.912 144.885C34.912 145.162 35.1884 145.162 35.1884 145.438C35.1884 145.715 35.4648 145.715 35.4648 145.991C35.4648 146.267 35.7412 146.267 35.7412 146.544C35.7412 146.544 35.7412 146.82 36.0177 146.82C36.0177 146.82 36.0177 146.82 36.0177 147.097C36.0177 147.373 36.2941 147.373 36.2941 147.65C36.2941 147.926 36.5705 147.926 36.5705 148.202C36.5705 148.479 36.8469 148.479 36.8469 148.755C36.8469 149.032 37.1234 149.032 37.1234 149.308C37.1234 149.585 37.3998 149.585 37.3998 149.861C37.3998 150.137 37.6762 150.137 37.6762 150.414C37.6762 150.69 37.9526 150.69 37.9526 150.967C37.9526 151.243 38.229 151.243 38.229 151.519C38.229 151.796 38.5055 151.796 38.5055 152.072C38.5055 152.349 38.7819 152.349 38.7819 152.625C38.7819 152.902 39.0583 152.902 39.0583 153.178C39.0583 153.454 39.3347 153.454 39.3347 153.731C39.3347 154.007 39.6111 154.007 39.6111 154.284C39.6111 154.56 39.8876 154.56 39.8876 154.837C39.8876 155.113 40.164 155.113 40.164 155.389C40.164 155.666 40.4404 155.666 40.4404 155.942L40.7168 156.219C40.7168 156.495 40.9932 156.495 40.9932 156.771C40.9932 157.048 41.2697 157.048 41.2697 157.324C41.2697 157.601 41.5461 157.601 41.5461 157.877C41.5461 158.154 41.8225 158.154 41.8225 158.43C41.8225 158.706 42.0989 158.706 42.0989 158.983C42.0989 159.259 42.3753 159.259 42.3753 159.536C42.3753 159.812 42.6518 159.812 42.6518 160.089C43.7575 160.089 43.7575 160.089 43.7575 160.089C43.7575 160.365 44.0339 160.365 44.0339 160.641C44.0339 160.918 44.3103 160.918 44.3103 161.194C44.3103 161.471 44.5867 161.471 44.5867 161.747C44.5867 162.023 44.8631 162.023 44.8631 162.3C44.8631 162.576 45.1396 162.576 45.1396 162.853C45.1396 163.129 45.416 163.129 45.416 163.406C45.416 163.682 45.6924 163.682 45.6924 163.958C45.6924 164.235 45.9688 164.235 45.9688 164.511L46.2452 164.788C46.2452 165.064 46.5217 165.064 46.5217 165.341C46.5217 165.617 46.7981 165.617 46.7981 165.893C46.7981 166.17 47.0745 166.17 47.0745 166.446C47.0745 166.723 47.3509 166.723 47.3509 166.999C47.3509 167.275 47.6273 167.275 47.6273 167.552C47.6273 167.828 47.9038 167.828 47.9038 168.105C47.9038 168.381 48.1802 168.381 48.1802 168.658L48.4566 168.934C48.4566 168.934 48.4566 168.934 48.4566 169.21C48.4566 169.487 48.733 169.487 48.733 169.763C48.733 170.04 49.0094 170.04 49.0094 170.316C49.0094 170.593 49.2859 170.593 49.2859 170.869C49.2859 171.145 49.5623 171.145 49.5623 171.422C49.5623 171.698 49.8387 171.698 49.8387 171.975C49.8387 172.251 50.1151 172.251 50.1151 172.527C50.1151 172.804 50.3915 172.804 50.3915 173.08C50.3915 173.357 50.668 173.357 50.668 173.633C50.668 173.91 50.9444 173.91 50.9444 174.186C50.9444 174.462 51.2208 174.462 51.4972 174.739C51.7737 175.015 51.7737 175.015 52.0501 175.292C52.3265 175.568 52.3265 175.568 52.6029 175.845C52.8793 176.121 52.8793 176.121 53.1558 176.397C53.4322 176.674 53.4322 176.674 53.7086 176.95C53.985 177.227 53.985 177.227 54.2614 177.503C54.5379 177.779 54.5379 177.779 54.8143 178.056C54.8143 178.332 55.0907 178.332 55.0907 178.609C55.3671 178.885 55.3671 178.885 55.6435 179.162C55.92 179.438 55.92 179.438 56.1964 179.714C56.4728 179.991 56.4728 179.991 56.7492 180.267C57.0257 180.544 57.0256 180.544 57.3021 180.82C57.5785 181.097 57.5785 181.097 57.8549 181.373C58.1313 181.649 58.1313 181.649 58.4078 181.926L58.6842 182.202C58.9606 182.479 58.9606 182.479 59.237 182.755C59.5134 183.031 59.5134 183.031 59.7899 183.308C60.0663 183.584 60.0663 183.584 60.3427 183.861C60.6191 184.137 60.6191 184.137 60.8955 184.414C61.172 184.69 61.172 184.69 61.4484 184.966C61.7248 185.243 61.7248 185.243 62.0012 185.519C62.2776 185.796 62.2776 185.796 62.5541 186.072C62.5541 186.072 62.5541 186.072 62.8305 186.349L63.1069 186.625C63.3833 186.901 63.3833 186.901 63.6598 187.178C63.9362 187.454 63.9362 187.454 64.2126 187.731C64.489 188.007 64.489 188.007 64.7654 188.283C65.0419 188.56 65.0419 188.56 65.3183 188.836C65.5947 189.113 65.5947 189.113 65.8711 189.389C66.1475 189.666 66.1475 189.666 66.424 189.942L66.7004 190.218L66.9768 190.495C67.2532 190.771 67.2532 190.771 67.5296 191.048C67.8061 191.324 67.8061 191.324 68.0825 191.601C68.3589 191.877 68.3589 191.877 68.6353 192.153C68.9117 192.43 68.9118 192.43 69.1882 192.706C69.4646 192.983 69.4646 192.983 69.741 193.259C70.0174 193.535 70.0174 193.535 70.2938 193.812C70.5703 194.088 70.5703 194.088 70.8467 194.365C71.1231 194.641 71.1231 194.641 71.3995 194.918C71.676 195.194 71.676 195.194 71.9524 195.47C72.2288 195.747 72.2288 195.747 72.5052 196.023C72.7816 196.3 73.0581 196.3 73.0581 196.576C73.3345 196.852 73.6109 196.853 73.8873 197.129C73.8873 197.129 73.8873 197.129 74.1637 197.405C74.4402 197.405 74.4402 197.682 74.7166 197.682C74.993 197.958 75.2694 197.958 75.5458 198.235C75.8223 198.511 76.0987 198.511 76.3751 198.787C76.6515 199.064 76.9279 199.064 77.2044 199.34C77.4808 199.617 77.7572 199.617 78.0336 199.893C78.3101 200.17 78.3101 200.17 78.5865 200.446C78.8629 200.722 79.1393 200.722 79.4157 200.999C79.6922 201.275 79.9686 201.275 80.245 201.552C80.5214 201.828 80.7978 202.104 81.0743 202.104C81.3507 202.381 81.6271 202.657 81.9035 202.657C82.1799 202.657 82.1799 202.934 82.4564 202.934C82.4564 202.934 82.7328 202.934 82.7328 203.21C83.0092 203.487 83.2856 203.763 83.5621 203.763C83.8385 204.039 84.1149 204.039 84.3913 204.316C84.6677 204.592 84.9442 204.592 85.2206 204.869C85.497 205.145 85.7734 205.145 86.0498 205.422C86.3263 205.698 86.6027 205.974 87.1555 205.974C87.7084 206.251 87.9848 206.527 88.5376 206.804C89.0905 207.08 89.3669 207.356 89.9197 207.633C90.1962 207.633 90.1962 207.909 90.4726 207.909C90.4726 207.909 90.4726 207.909 90.749 207.909C91.0254 207.909 91.0254 208.186 91.3018 208.186C91.8547 208.462 92.1311 208.739 92.6839 209.015C93.2368 209.291 93.7896 209.568 94.6189 209.844C94.6189 209.844 94.8953 209.844 94.8953 210.121C95.1717 210.121 95.1717 210.397 95.4482 210.397C96.001 210.674 96.2774 210.95 96.8303 211.226C97.6595 211.503 98.2124 212.056 99.0416 212.332H99.318C99.8709 212.608 100.424 212.885 100.977 212.885C101.806 213.161 102.359 213.438 103.188 213.991C103.464 213.991 103.464 213.991 103.741 214.267C104.294 214.543 104.846 214.82 105.399 214.82C106.229 215.096 107.058 215.649 108.164 215.926C108.716 216.202 109.269 216.202 109.822 216.478C110.375 216.755 110.651 216.755 111.204 217.031C111.481 217.031 112.033 217.308 112.31 217.308C113.139 217.584 113.692 217.86 114.521 217.86C114.798 217.86 115.35 218.137 115.627 218.137C116.18 218.413 117.009 218.413 117.562 218.69C117.562 218.69 117.562 218.69 117.838 218.69C118.391 218.966 118.944 218.966 119.497 219.243C120.05 219.519 120.879 219.519 121.432 219.795C121.708 219.795 121.985 219.795 122.261 220.072C122.537 220.072 122.814 220.072 123.09 220.348C123.643 220.348 123.919 220.625 124.472 220.625C125.025 220.625 125.302 220.901 125.854 220.901C126.131 220.901 126.131 220.901 126.407 220.901C126.407 220.901 126.407 220.901 126.684 220.901C126.96 220.901 126.96 220.901 127.237 220.901C127.513 220.901 128.066 220.901 128.342 221.178C128.619 221.178 129.171 221.178 129.448 221.454C129.724 221.454 130.001 221.454 130.277 221.454C130.554 221.454 130.83 221.454 131.106 221.454C131.383 221.454 131.659 221.454 131.936 221.454C132.212 221.454 132.489 221.454 132.765 221.454C133.041 221.454 133.318 221.454 133.594 221.454C133.594 221.454 133.594 221.454 133.871 221.454C134.147 221.454 134.423 221.454 134.423 221.454C134.7 221.454 134.976 221.454 135.253 221.454C135.529 221.454 135.806 221.454 136.082 221.454C136.358 221.454 136.635 221.454 136.911 221.454C137.188 221.454 137.188 221.454 137.464 221.454C137.741 221.454 138.017 221.454 138.293 221.454C138.57 221.454 138.846 221.454 139.123 221.454C139.399 221.454 139.675 221.454 139.952 221.454C140.228 221.454 140.505 221.454 140.781 221.454C141.058 221.454 141.334 221.454 141.61 221.454C141.887 221.454 141.887 221.454 142.163 221.454C142.44 221.454 142.716 221.454 142.993 221.454C143.269 221.454 143.545 221.454 143.545 221.454C143.822 221.454 143.822 221.454 144.098 221.454C144.375 221.454 144.375 221.454 144.651 221.454C144.927 221.454 144.927 221.454 145.204 221.454C145.48 221.454 145.48 221.454 145.757 221.454C146.033 221.454 146.033 221.454 146.31 221.454C146.586 221.454 146.586 221.454 146.862 221.454C147.139 221.454 147.139 221.454 147.415 221.454C147.692 221.454 147.692 221.454 147.968 221.454C148.245 221.454 148.245 221.454 148.521 221.454C148.797 221.454 148.797 221.454 149.074 221.454C149.35 221.454 149.35 221.454 149.627 221.454C149.903 221.454 149.903 221.454 150.179 221.454C150.456 221.454 150.456 221.454 150.732 221.454C151.009 221.454 151.009 221.454 151.285 221.454C151.562 221.454 151.562 221.454 151.838 221.454C151.838 221.454 151.838 221.454 152.114 221.454H152.391C152.667 221.454 152.667 221.454 152.944 221.454C153.22 221.454 153.22 221.454 153.497 221.454C153.773 221.454 153.773 221.454 154.049 221.454C154.326 221.454 154.326 221.454 154.602 221.454C154.879 221.454 154.879 221.454 155.155 221.454C155.431 221.454 155.431 221.454 155.708 221.454C155.984 221.454 155.984 221.454 156.261 221.454C156.537 221.454 156.537 221.454 156.814 221.454C157.09 221.454 157.09 221.454 157.366 221.454C157.643 221.454 157.643 221.454 157.919 221.454C158.196 221.454 158.196 221.454 158.472 221.454C158.749 221.454 158.749 221.454 159.025 221.178C159.301 221.178 159.301 221.178 159.578 220.901H159.854C160.131 220.901 160.131 220.901 160.407 220.625C160.683 220.625 160.683 220.625 160.96 220.348C161.236 220.348 161.236 220.348 161.513 220.072C161.789 220.072 161.789 220.072 162.066 219.795C162.342 219.795 162.342 219.795 162.618 219.519C162.895 219.519 162.895 219.519 163.171 219.243H163.448C163.724 219.243 163.724 219.243 164.001 218.966C164.277 218.966 164.277 218.966 164.553 218.69C164.553 218.69 164.83 218.69 164.83 218.413C164.83 218.413 165.106 218.413 165.106 218.137C165.106 218.137 165.383 218.137 165.383 217.86C165.383 217.86 165.659 217.86 165.659 217.584H165.935C165.935 217.584 165.935 217.584 166.212 217.584C166.212 217.584 166.488 217.584 166.488 217.308C166.488 217.308 166.765 217.308 166.765 217.031C166.765 217.031 167.041 217.031 167.041 216.755C167.041 216.755 167.318 216.755 167.318 216.478C167.318 216.202 167.594 216.478 167.594 216.202C167.594 216.202 167.87 216.202 167.87 215.926C167.87 215.926 168.147 215.926 168.147 215.649C168.147 215.649 168.423 215.649 168.423 215.373L168.7 215.096L168.976 214.82L169.253 214.543L169.529 214.267L169.805 213.991L170.082 213.714C170.082 213.714 170.082 213.714 170.358 213.714C170.358 213.714 170.358 213.714 170.635 213.714L170.911 213.438L171.187 213.161L171.464 212.885L171.74 212.608L172.017 212.332L172.293 212.056L172.57 211.779L172.846 211.503L173.122 211.226L173.399 210.95L173.675 210.674L173.952 210.397L174.228 210.121L174.505 209.844L209.61 182.202L209.334 182.479C208.504 183.031 207.675 183.584 206.846 184.137Z" fill="url(#paint1_linear_139_263)"/>
</g>
</g>
<defs>
<linearGradient id="paint0_linear_139_263" x1="144.513" y1="26.024" x2="144.513" y2="165.893" gradientUnits="userSpaceOnUse">
<stop stop-color="#4361EE"/>
<stop offset="1" stop-color="#3F37C9"/>
</linearGradient>
<linearGradient id="paint1_linear_139_263" x1="115.35" y1="10.5449" x2="115.35" y2="221.454" gradientUnits="userSpaceOnUse">
<stop stop-color="#560BAD"/>
<stop offset="1" stop-color="#3A0CA3"/>
</linearGradient>
</defs>
</svg>
