<svg width="112" height="21" viewBox="0 0 112 21" fill="none" xmlns="http://www.w3.org/2000/svg">
<path d="M20.8209 11.554H16.1875V13.8707H20.8209V19.0091C20.8209 20.0487 20.0487 20.8209 19.0091 20.8209H9.26695V13.8707H6.95021V20.8209H1.54449C0.50493 20.8209 0 20.0487 0 19.0091V1.54449C0 0.772246 0.50493 0 1.54449 0H19.0091C20.0487 0 20.8209 0.772246 20.8209 1.54449V11.554ZM9.26695 9.26695V4.63347H6.95021V9.26695H9.26695Z" fill="url(#paint0_linear_65_124)"/>
<path d="M25.3001 20.8209C24.5278 20.8209 23.7556 20.0487 23.7556 19.0091V13.8707H26.0723H30.7058V11.554H26.0723V6.95021H30.7058V4.63347H23.7556V1.54449C23.7556 0.50493 24.5278 0 25.3001 0H40.4777C41.4875 0 42.2598 0.50493 42.2598 1.54449V19.0091C42.2598 20.0487 41.4875 20.8209 40.4777 20.8209H25.3001Z" fill="url(#paint1_linear_65_124)"/>
<path d="M64.6405 0.0297014C65.4128 0.0297014 66.185 0.801947 66.185 1.81181V19.2467C66.185 20.019 65.4128 20.7912 64.6405 20.7912H47.2056C46.1957 20.7912 45.4235 20.019 45.4235 19.2467V1.81181C45.4235 0.801947 46.1957 0.0297014 47.2056 0.0297014H64.6405ZM54.6607 16.1875V4.63347H52.344V16.1875H54.6607Z" fill="url(#paint2_linear_65_124)"/>
<path d="M90 11.554H85.3665V20.8209H73.8125V11.554H69.1791V1.54449C69.1791 0.772246 69.9513 0 70.7236 0H78.446V6.95021H80.7331V0H88.1882C89.2278 0 90 0.772246 90 1.54449V11.554Z" fill="url(#paint3_linear_65_124)"/>
<path d="M107.272 16.168C107.272 16.8507 107.155 17.4693 106.92 18.024C106.685 18.568 106.365 19.032 105.96 19.416C105.555 19.8 105.075 20.0987 104.52 20.312C103.965 20.5147 103.363 20.616 102.712 20.616C102.061 20.616 101.459 20.5147 100.904 20.312C100.349 20.0987 99.864 19.8 99.448 19.416C99.0426 19.032 98.7226 18.568 98.488 18.024C98.264 17.4693 98.152 16.8507 98.152 16.168V9H100.168V16.088C100.168 16.4187 100.211 16.7493 100.296 17.08C100.381 17.4 100.52 17.688 100.712 17.944C100.915 18.2 101.176 18.408 101.496 18.568C101.827 18.728 102.232 18.808 102.712 18.808C103.192 18.808 103.592 18.728 103.912 18.568C104.243 18.408 104.504 18.2 104.696 17.944C104.899 17.688 105.043 17.4 105.128 17.08C105.213 16.7493 105.256 16.4187 105.256 16.088V9H107.272V16.168Z" fill="#3A0CA3"/>
<path d="M109.67 9H111.686V20.328H109.67V9Z" fill="#3A0CA3"/>
<defs>
<linearGradient id="paint0_linear_65_124" x1="35.6421" y1="-6.68289" x2="35.6421" y2="20.7912" gradientUnits="userSpaceOnUse">
<stop stop-color="#3A0CA3"/>
<stop offset="1" stop-color="#4361EE"/>
</linearGradient>
<linearGradient id="paint1_linear_65_124" x1="35.6421" y1="-6.68289" x2="35.6421" y2="20.7912" gradientUnits="userSpaceOnUse">
<stop stop-color="#3A0CA3"/>
<stop offset="1" stop-color="#4361EE"/>
</linearGradient>
<linearGradient id="paint2_linear_65_124" x1="35.6421" y1="-6.68289" x2="35.6421" y2="20.7912" gradientUnits="userSpaceOnUse">
<stop stop-color="#3A0CA3"/>
<stop offset="1" stop-color="#4361EE"/>
</linearGradient>
<linearGradient id="paint3_linear_65_124" x1="35.6421" y1="-6.68289" x2="35.6421" y2="20.7912" gradientUnits="userSpaceOnUse">
<stop stop-color="#3A0CA3"/>
<stop offset="1" stop-color="#4361EE"/>
</linearGradient>
</defs>
</svg>
