<svg width="24" height="24" viewBox="0 0 24 24" fill="none" xmlns="http://www.w3.org/2000/svg">
<path fill-rule="evenodd" clip-rule="evenodd" d="M8 6C4.68629 6 2 8.68629 2 12C2 15.3137 4.68629 18 8 18H16C19.3137 18 22 15.3137 22 12C22 8.68629 19.3137 6 16 6H8ZM0 12C0 7.58172 3.58172 4 8 4H16C20.4183 4 24 7.58172 24 12C24 16.4183 20.4183 20 16 20H8C3.58172 20 0 16.4183 0 12Z" fill="#0D1B2A"/>
<path fill-rule="evenodd" clip-rule="evenodd" d="M16 10C14.8954 10 14 10.8954 14 12C14 13.1046 14.8954 14 16 14C17.1046 14 18 13.1046 18 12C18 10.8954 17.1046 10 16 10ZM12 12C12 9.79086 13.7909 8 16 8C18.2091 8 20 9.79086 20 12C20 14.2091 18.2091 16 16 16C13.7909 16 12 14.2091 12 12Z" fill="#0D1B2A"/>
</svg>
